<svg xmlns="http://www.w3.org/2000/svg" width="28" height="28" fill="none" viewBox="0 0 28 28">
    <path fill="#C7C7C9" d="M10.71 1.4h10.5c.87 0 1.612.308 2.227.923.615.615.923 1.357.923 2.227v14.7c0 .87-.308 1.612-.923 2.227a3.035 3.035 0 0 1-2.227.923h-10.5c-.87 0-1.612-.307-2.227-.923a3.035 3.035 0 0 1-.923-2.227V4.55c0-.87.308-1.612.923-2.227A3.035 3.035 0 0 1 10.71 1.4zM5.46 5.78v17.67c0 .29.103.538.307.742.205.205.453.308.743.308h13.47a3.111 3.111 0 0 1-1.14 1.513 3.048 3.048 0 0 1-1.83.587H6.51c-.87 0-1.612-.308-2.227-.923a3.035 3.035 0 0 1-.923-2.227V8.75c0-.678.195-1.288.587-1.83A3.107 3.107 0 0 1 5.46 5.78zM21.21 3.5h-10.5c-.29 0-.537.103-.742.308a1.012 1.012 0 0 0-.308.742v14.7c0 .29.103.538.308.743.205.205.452.307.742.307h10.5c.29 0 .537-.102.742-.307.205-.205.308-.453.308-.743V4.55c0-.29-.103-.537-.308-.742a1.011 1.011 0 0 0-.742-.308z"/>
</svg>
