<svg xmlns="http://www.w3.org/2000/svg" width="28" height="28" fill="none" viewBox="0 0 28 28">
    <path fill="#C7C7C9" fill-rule="evenodd" d="M7.27 18.285L24.125 1.4s2.242 3.743-1.496 7.485c-1.324 1.328-11.469 11.49-12.373 12.395.373 1.41.025 2.97-1.08 4.077a4.22 4.22 0 0 1-5.978 0 4.238 4.238 0 0 1 0-5.989c1.103-1.105 2.661-1.456 4.07-1.083zM4.693 23.86a2.115 2.115 0 1 0 2.989-2.995 2.11 2.11 0 0 0-2.99 0 2.122 2.122 0 0 0 0 2.995zm8.893-9.968a1.057 1.057 0 1 0 2.114 0 1.058 1.058 0 1 0-2.114 0zM4.105 1.4S1.863 5.143 5.599 8.886l1.205 1.207.003.003 3.571 3.577 2.99-2.995L4.104 1.4zm20.927 17.97c-1.104-1.107-2.662-1.457-4.07-1.084l-3.11-3.114-2.99 2.994c1.252 1.254 2.355 2.358 3.11 3.116-.372 1.41-.023 2.97 1.08 4.077a4.22 4.22 0 0 0 5.979 0 4.238 4.238 0 0 0 0-5.99zm-1.495 4.49a2.115 2.115 0 1 1-2.989-2.994 2.11 2.11 0 0 1 2.99 0c.824.825.824 2.17 0 2.995z" clip-rule="evenodd"/>
</svg>
