<svg xmlns="http://www.w3.org/2000/svg" width="28" height="28" fill="none" viewBox="0 0 28 28">
    <path fill="#3B69DE" fill-rule="evenodd" d="M11.667 2.333a2.333 2.333 0 1 1 4.666 0h5.834A2.333 2.333 0 0 1 24.5 4.667v1.166h-21V4.667a2.333 2.333 0 0 1 2.333-2.334h5.834zM4.667 7v17.5a3.5 3.5 0 0 0 3.5 3.5h11.666a3.5 3.5 0 0 0 3.5-3.5V7H4.667zM7 9.333h2.333V24.5A2.333 2.333 0 0 1 7 22.167V9.333zm14 0h-2.333V24.5A2.333 2.333 0 0 0 21 22.167V9.333zm-8.167 0h2.334v14a1.167 1.167 0 0 1-2.334 0v-14z" clip-rule="evenodd"/>
</svg>
