<svg xmlns="http://www.w3.org/2000/svg" width="24" height="24" fill="none" viewBox="0 0 24 24">
    <path fill="#000" d="M4 20.25a.25.25 0 0 1 .25-.25h15.5a.25.25 0 0 1 .25.25v2.5a.25.25 0 0 1-.25.25H4.25a.25.25 0 0 1-.25-.25v-2.5zM16.396 14H7.604a.25.25 0 0 0-.177.427l4.396 4.396a.25.25 0 0 0 .354 0l4.396-4.396a.25.25 0 0 0-.177-.427z"/>
    <path fill="#000" fill-rule="evenodd" d="M15.336 9.185a2.72 2.72 0 0 0-.237-.575 1.948 1.948 0 0 0-.4-.478 4.761 4.761 0 0 0-.466-.377 4.557 4.557 0 0 0-.568-.32c-.241-.118-.432-.206-.572-.263a17.55 17.55 0 0 0-.348-.138V4.293l.013.003a3.368 3.368 0 0 1 1 .437c.139.088.237.154.295.2.057.045.094.075.109.09a.24.24 0 0 0 .203.052c.075-.005.133-.045.173-.12l.61-1.1c.06-.1.048-.195-.038-.285a2.525 2.525 0 0 0-.113-.106 3.943 3.943 0 0 0-.293-.218c-.15-.105-.31-.2-.478-.282a4.835 4.835 0 0 0-1.481-.425v-.815a.748.748 0 0 0-.006-.096v-.414a.235.235 0 0 0-.068-.174.235.235 0 0 0-.173-.067h-1.016a.231.231 0 0 0-.17.071.231.231 0 0 0-.071.17v1.355c-.788.15-1.428.486-1.92 1.008s-.738 1.13-.738 1.822c0 .206.022.402.064.587.043.186.096.353.159.5.062.149.151.294.267.437.115.143.224.266.327.37.103.102.237.209.403.32.166.11.307.199.425.266.118.068.275.146.47.234a13.012 13.012 0 0 0 .544.231v2.776c-.58-.15-1.124-.449-1.634-.896l-.015-.015a.187.187 0 0 0-.181-.068c-.08.01-.138.04-.173.09l-.776 1.017c-.075.1-.07.203.015.309.026.03.07.075.132.135.063.06.18.155.35.283.17.128.357.248.557.361.201.113.456.225.764.335.31.11.63.188.96.233v1.318c0 .065.024.121.072.17a.232.232 0 0 0 .17.07h.387a.761.761 0 0 0 .247 0h.381c.07 0 .129-.022.174-.067a.235.235 0 0 0 .067-.173v-.409a.78.78 0 0 0 .006-.092v-.818c.796-.13 1.442-.473 1.94-1.026.5-.555.75-1.216.75-1.984 0-.25-.033-.487-.1-.708zm-2.591 1.895c.113-.048.22-.107.322-.178.308-.216.463-.522.463-.919a.762.762 0 0 0-.113-.399 1.412 1.412 0 0 0-.253-.316 2 2 0 0 0-.42-.271v2.083zm-1.503-6.712v2.026a1.655 1.655 0 0 1-.163-.103 3.317 3.317 0 0 1-.297-.248.847.847 0 0 1-.287-.674c0-.341.151-.62.452-.836.09-.064.189-.12.295-.165z" clip-rule="evenodd"/>
</svg>
