<svg xmlns="http://www.w3.org/2000/svg" width="21" height="28" fill="none" viewBox="0 0 21 28">
    <path fill="#000" fill-opacity="0" d="M0 0h21v28H0z"/>
    <path fill="#3B69DE" fill-rule="evenodd" d="M4 0a4 4 0 0 0-4 4v20a4 4 0 0 0 4 4h13a4 4 0 0 0 4-4V4a4 4 0 0 0-4-4H4zm.5 5.833a1 1 0 0 0-1 1v.334a1 1 0 0 0 1 1h12a1 1 0 0 0 1-1v-.334a1 1 0 0 0-1-1h-12zm-1 15a1 1 0 0 1 1-1h12a1 1 0 0 1 1 1v.334a1 1 0 0 1-1 1h-12a1 1 0 0 1-1-1v-.334zm1-8a1 1 0 0 0-1 1v.334a1 1 0 0 0 1 1h12a1 1 0 0 0 1-1v-.334a1 1 0 0 0-1-1h-12z" clip-rule="evenodd"/>
</svg>
