<svg xmlns="http://www.w3.org/2000/svg" width="700" height="203" fill="none" viewBox="0 0 700 203">
    <path fill="#fff" d="M502.152 125.146l.131-.131-.327 1.046a509.77 509.77 0 0 0-4.426 14.195c-.981 3.33 2.497 6.137 5.579 4.54l5.185-2.687a8.023 8.023 0 0 0 3.953-4.694 3095.104 3095.104 0 0 1 5.537-17.175v-.065c0-.305-.262-.807-.785-1.504-2.965-3.707-5.865-5.56-8.699-5.56h-.523c-1.744 0-3.423.567-5.036 1.701-.828.523-2.071 1.657-3.728 3.401a86.125 86.125 0 0 0-4.774 5.494 355.187 355.187 0 0 0-14.716 20.209c1.439-4.36 4.12-12.165 8.044-23.414 0-.872-1.308-2.551-3.924-5.036-3.008-2.573-5.188-3.946-6.54-4.121-.087 0-.218.044-.393.131a4698.003 4698.003 0 0 0-7.717 22.172c-6.758 20.013-10.138 33.05-10.138 39.111v.131c.088.828 1.308 2.376 3.663 4.644 3.314 2.877 5.603 4.316 6.867 4.316h.131l.262-.196c0-1.744.392-3.99 1.177-6.737 1.134-3.619 2.245-6.496 3.336-8.633 1.7-3.706 4.491-8.633 8.371-14.781 5.145-7.979 11.642-16.765 19.49-26.357zM684.369 125.146l.13-.131-.327 1.046a513.165 513.165 0 0 0-4.426 14.195c-.981 3.33 2.497 6.137 5.579 4.54l5.185-2.687a8.023 8.023 0 0 0 3.953-4.694A3182.51 3182.51 0 0 1 700 120.24v-.065c0-.305-.262-.807-.785-1.504-2.965-3.707-5.864-5.56-8.698-5.56h-.524c-1.744 0-3.422.567-5.036 1.701-.828.523-2.071 1.657-3.728 3.401a86.442 86.442 0 0 0-4.774 5.494 355.187 355.187 0 0 0-14.716 20.209c1.439-4.36 4.12-12.165 8.045-23.414 0-.872-1.308-2.551-3.925-5.036-3.008-2.573-5.188-3.946-6.54-4.121-.087 0-.218.044-.392.131a4698.87 4698.87 0 0 0-7.718 22.172c-6.758 20.013-10.137 33.05-10.137 39.111v.131c.087.828 1.308 2.376 3.662 4.644 3.314 2.877 5.603 4.316 6.868 4.316h.13l.262-.196c0-1.744.392-3.99 1.177-6.737 1.134-3.619 2.246-6.496 3.336-8.633 1.7-3.706 4.491-8.633 8.371-14.781 5.146-7.979 11.642-16.765 19.491-26.357zM294.322 112.828c1.352.131 3.597 1.591 6.737 4.382 2.441 2.311 3.662 3.859 3.662 4.644-.131.436-1.286 3.706-3.466 9.81-2.355 6.758-4.164 12.209-5.429 16.351-1.526 4.927-2.899 10.246-4.12 15.958-.218.872-.327 1.374-.327 1.505 3.052-3.053 5.276-5.516 6.671-7.391a160.668 160.668 0 0 0 6.998-9.287l.066-.066h.196c.654 0 1.984.938 3.989 2.813.785.828 1.178 1.395 1.178 1.7v.131c-9.593 13.473-16.395 20.471-20.406 20.994-2.616 0-5.429-1.831-8.437-5.493-1.221-1.527-1.832-3.445-1.832-5.756 0-2.703.524-6.322 1.57-10.857v-.065h-.065c-10.639 14.824-18.27 22.237-22.891 22.237h-.131c-2.398 0-5.298-1.635-8.699-4.905-1.744-1.788-2.987-3.532-3.728-5.233-.959-2.223-1.439-4.665-1.439-7.325v-.458c0-5.319 1.875-11.99 5.625-20.013 1.657-3.445 3.859-7.064 6.606-10.857 5.973-7.718 11.445-11.576 16.416-11.576 3.75 0 8.219 2.463 13.408 7.39 1.351 1.395 2.376 2.551 3.074 3.467h.065c1.09-3.271 2.507-7.26 4.251-11.969a.81.81 0 0 1 .458-.131zm-38.98 52.78c0 1.308.13 2.486.392 3.532 4.142-1.7 10.312-8.088 18.509-19.163 5.145-7.02 9.68-13.648 13.604-19.883 0-.087.044-.196.131-.327-.698-1.264-2.18-3.074-4.448-5.428-.61-.48-.959-.72-1.046-.72-1.744 0-3.968.872-6.671 2.617-2.965 2.136-5.799 5.036-8.503 8.698-1.395 1.875-2.79 4.012-4.185 6.41-1.744 2.965-3.401 6.584-4.971 10.857-1.875 5.101-2.812 9.57-2.812 13.407z"/>
    <path fill="#fff" d="M337.488 59.459h.131c1.09 0 3.27 1.373 6.54 4.12 2.616 2.486 3.925 4.12 3.925 4.905v.066c-.044.174-1.156 2.943-3.336 8.306-7.587 18.531-14.193 35.754-19.817 51.669-1.657 4.534-2.856 8.197-3.597 10.987 0 .088-.131.611-.393 1.57v.066h.066c2.441-3.925 5.559-8.328 9.352-13.212 1.744-2.267 4.099-4.927 7.064-7.979 2.485-2.267 4.36-3.706 5.624-4.317 1.963-1.133 3.859-1.7 5.691-1.7 2.223 0 4.491 1.155 6.801 3.466 1.701 1.526 2.878 2.769 3.532 3.728 1.919 2.485 2.878 5.581 2.878 9.287v.981c0 5.189-1.918 11.991-5.755 20.406-1.701 3.663-4.012 7.522-6.933 11.577-1.221 1.7-2.9 3.706-5.036 6.017-4.84 4.709-9.266 7.063-13.277 7.063h-.131c-4.055 0-8.808-2.638-14.258-7.914l-1.766-1.962c-2.354 6.672-3.532 12.754-3.532 18.248-.087.218-.218.327-.392.327h-.196c-1.613-.262-4.077-1.919-7.391-4.971-1.962-1.962-2.943-3.292-2.943-3.989v-1.047c0-12.078 5.189-32.418 15.566-61.021 5.625-15.435 12.165-32.31 19.621-50.622 1.047-2.53 1.613-3.859 1.701-3.99l.261-.065zm-20.929 103.01c.175.654 1.265 2.027 3.27 4.12.175.262.48.393.916.393h.196c5.363 0 11.337-4.426 17.921-13.277a78.645 78.645 0 0 0 6.54-11.184c3.706-8.023 5.559-14.89 5.559-20.602a45.49 45.49 0 0 0-.196-3.074h-.065c-5.233 2.093-12.1 9.222-20.602 21.387a229.35 229.35 0 0 0-13.343 21.779l-.196.458zM454.827 113.627c1.351.131 3.597 1.592 6.736 4.382 2.442 2.311 3.663 3.859 3.663 4.644-.131.436-1.287 3.706-3.467 9.81-2.354 6.759-4.164 12.209-5.428 16.351-1.526 4.927-2.9 10.247-4.121 15.959-.218.872-.327 1.373-.327 1.504 3.053-3.052 5.276-5.516 6.672-7.391 2.31-2.834 4.643-5.93 6.998-9.287l.065-.065h.196c.654 0 1.984.937 3.99 2.812.785.829 1.177 1.395 1.177 1.701v.13c-9.592 13.473-16.394 20.472-20.406 20.995-2.616 0-5.428-1.831-8.437-5.494-1.221-1.526-1.831-3.445-1.831-5.756 0-2.703.523-6.322 1.57-10.857V153h-.066c-10.639 14.825-18.269 22.237-22.891 22.237h-.131c-2.398 0-5.297-1.635-8.698-4.905-1.744-1.788-2.987-3.532-3.728-5.232-.96-2.224-1.439-4.666-1.439-7.325v-.458c0-5.32 1.875-11.991 5.625-20.014 1.656-3.444 3.858-7.063 6.605-10.857 5.974-7.717 11.446-11.576 16.416-11.576 3.75 0 8.219 2.464 13.408 7.391 1.352 1.395 2.376 2.55 3.074 3.466h.065c1.091-3.27 2.508-7.26 4.252-11.969a.807.807 0 0 1 .458-.131zm-38.981 52.781c0 1.308.131 2.485.393 3.532 4.142-1.701 10.312-8.089 18.509-19.164 5.145-7.02 9.679-13.647 13.604-19.882 0-.087.043-.196.13-.327-.697-1.265-2.18-3.074-4.447-5.429-.61-.479-.959-.719-1.046-.719-1.745 0-3.968.872-6.672 2.616-2.965 2.136-5.799 5.036-8.502 8.699-1.395 1.875-2.791 4.011-4.186 6.409-1.744 2.965-3.401 6.584-4.97 10.857-1.875 5.102-2.813 9.571-2.813 13.408zM560.497 112.864c1.352.131 3.597 1.592 6.737 4.382 2.441 2.311 3.662 3.859 3.662 4.644-.131.436-1.286 3.706-3.466 9.81-2.355 6.759-4.164 12.209-5.429 16.351-1.526 4.927-2.899 10.247-4.12 15.959-.218.872-.327 1.373-.327 1.504 3.052-3.052 5.276-5.516 6.671-7.391a160.668 160.668 0 0 0 6.998-9.287l.066-.065h.196c.654 0 1.984.937 3.989 2.812.785.828 1.178 1.395 1.178 1.701v.13c-9.593 13.473-16.395 20.472-20.406 20.995-2.616 0-5.429-1.832-8.437-5.494-1.221-1.526-1.831-3.445-1.831-5.756 0-2.703.523-6.322 1.569-10.857v-.065h-.065c-10.639 14.825-18.27 22.237-22.891 22.237h-.131c-2.398 0-5.298-1.635-8.699-4.905-1.744-1.788-2.987-3.532-3.728-5.232-.959-2.224-1.439-4.666-1.439-7.326v-.457c0-5.32 1.875-11.991 5.625-20.014 1.657-3.444 3.859-7.063 6.606-10.857 5.973-7.717 11.445-11.576 16.416-11.576 3.75 0 8.219 2.463 13.408 7.391 1.351 1.395 2.376 2.55 3.074 3.466h.065c1.09-3.27 2.507-7.26 4.251-11.969a.81.81 0 0 1 .458-.131zm-38.98 52.781c0 1.308.131 2.485.392 3.531 4.142-1.7 10.312-8.088 18.509-19.163 5.145-7.02 9.68-13.647 13.604-19.882 0-.087.044-.196.131-.327-.698-1.265-2.18-3.074-4.447-5.429-.611-.479-.96-.719-1.047-.719-1.744 0-3.968.872-6.671 2.616-2.965 2.136-5.799 5.036-8.502 8.699-1.396 1.874-2.791 4.011-4.186 6.409-1.744 2.965-3.401 6.584-4.971 10.857-1.875 5.102-2.812 9.571-2.812 13.408z"/>
    <path fill="#fff" d="M592.021 82.91a1793.117 1793.117 0 0 1 8.83-23.088c.131-.261.283-.392.458-.392h.196c1.482.218 3.837 1.766 7.063 4.643 2.181 2.18 3.271 3.62 3.271 4.317v.13c0 .088-1.265 3.38-3.794 9.877l-1.373 3.531c3.75-.174 8.393-.305 13.931-.392 1.526 0 2.681-.022 3.466-.065 1.047.13 3.074 1.548 6.083 4.25 2.965 3.01 4.447 4.993 4.447 5.953 0 .261-.349.392-1.046.392-11.817.218-19.883.48-24.2.785-2.659.174-5.014.37-7.063.588-4.971 13.43-9.484 26.38-13.539 38.85-2.441 7.587-4.513 14.89-6.213 21.91a152.951 152.951 0 0 0-1.962 10.334c-.131 1.395-.24 2.485-.327 3.27 1.046-.567 3.335-2.551 6.867-5.952 4.404-4.665 7.74-8.458 10.007-11.38.916-1.133 1.395-1.7 1.439-1.7h.131c.697 0 2.049.959 4.055 2.877.741.785 1.111 1.33 1.111 1.636v.065c-11.249 14.04-18.901 21.06-22.956 21.06h-.393c-2.092 0-4.687-1.483-7.783-4.448-1.7-1.918-2.681-3.488-2.943-4.709-.305-1.177-.457-2.55-.457-4.12 0-8.895 4.382-26.14 13.146-51.734a988.17 988.17 0 0 1 4.643-13.08 29.606 29.606 0 0 0-2.747.85c-3.532 1.351-5.297 2.681-5.297 3.989v.131l.261.981c0 .174-.131.305-.392.392-1.09 0-3.445-1.744-7.064-5.232-2.529-2.66-3.793-4.6-3.793-5.82v-.262c0-3.183 6.54-5.8 19.621-7.849 1.046-.174 2.485-.37 4.316-.588z"/>
    <path fill="#fff" d="M625.639 116.331h.85c3.532 0 7.282 1.853 11.249 5.559 4.317 4.317 6.475 9.636 6.475 15.958v1.178c0 5.755-1.896 12.274-5.69 19.555-.959 1.744-2.158 3.619-3.597 5.625-.828 1.264-2.398 3.052-4.709 5.363-2.442 2.224-4.36 3.684-5.756 4.382-2.834 1.613-5.406 2.42-7.717 2.42h-.72c-1.962 0-4.294-.654-6.998-1.962-.915-.436-2.136-1.308-3.662-2.616-3.052-3.271-4.731-5.363-5.036-6.279-.48-.654-.981-1.831-1.505-3.532-.61-2.311-.915-4.731-.915-7.26 0-7.761 2.616-15.784 7.848-24.068 1.003-1.57 2.507-3.488 4.513-5.756.349-.392.61-.588.785-.588h.261c.131 0 .611.152 1.439.458 3.401-4.317 6.759-6.998 10.072-8.045 1.134-.262 2.071-.392 2.813-.392zm-7.587 31.393c0 1.657.283 3.009.85 4.055 2.18 2.093 3.27 3.51 3.27 4.251v.131c0 .262-.152.393-.457.393-1.265 0-4.077-1.853-8.437-5.56 0-.043-.524-.566-1.57-1.569-1.875 4.84-2.813 9.352-2.813 13.538v1.439c0 2.049.306 4.011.916 5.886.131.306.371.72.72 1.243.174 0 .436.022.784.065 4.579 0 9.44-2.594 14.585-7.783 2.922-3.139 4.993-5.864 6.214-8.175 1.09-1.657 2.289-4.077 3.597-7.26 2.049-5.188 3.074-9.963 3.074-14.323 0-2.878-.436-5.581-1.308-8.11-.262-.087-.654-.131-1.178-.131h-.13c-2.486 0-4.731.785-6.737 2.355-2.18 1.569-4.382 3.815-6.606 6.736-3.183 4.36-4.774 8.633-4.774 12.819zM387.951 114.412h.85c3.532 0 7.282 1.853 11.249 5.559 4.317 4.317 6.475 9.636 6.475 15.959v1.177c0 5.756-1.896 12.274-5.69 19.556-.959 1.744-2.158 3.619-3.597 5.624-.828 1.265-2.398 3.052-4.709 5.363-2.442 2.224-4.36 3.685-5.756 4.382-2.834 1.614-5.406 2.42-7.717 2.42h-.72c-1.962 0-4.294-.654-6.998-1.962-.915-.436-2.136-1.308-3.662-2.616-3.052-3.27-4.731-5.363-5.036-6.279-.48-.654-.981-1.831-1.505-3.531-.61-2.311-.915-4.731-.915-7.26 0-7.761 2.616-15.784 7.848-24.069 1.003-1.569 2.507-3.488 4.513-5.755.349-.392.61-.589.785-.589h.261c.131 0 .611.153 1.439.458 3.401-4.316 6.759-6.998 10.072-8.044 1.134-.262 2.071-.393 2.813-.393zm-7.587 31.394c0 1.657.283 3.008.85 4.055 2.18 2.093 3.27 3.51 3.27 4.251v.131c0 .261-.152.392-.457.392-1.265 0-4.077-1.853-8.438-5.559 0-.044-.523-.567-1.569-1.57-1.875 4.84-2.813 9.353-2.813 13.539v1.439c0 2.049.306 4.011.916 5.886.131.305.371.719.72 1.242.174 0 .436.022.784.066 4.579 0 9.44-2.594 14.585-7.783 2.922-3.139 4.993-5.865 6.214-8.176 1.09-1.656 2.289-4.076 3.597-7.259 2.049-5.189 3.074-9.963 3.074-14.324 0-2.877-.436-5.581-1.308-8.11-.262-.087-.654-.13-1.178-.13h-.13c-2.486 0-4.731.784-6.737 2.354-2.18 1.57-4.382 3.815-6.606 6.737-3.183 4.36-4.774 8.633-4.774 12.819zM187.722 114.412h.85c3.532 0 7.282 1.853 11.249 5.559 4.317 4.317 6.475 9.636 6.475 15.959v1.177c0 5.756-1.896 12.274-5.69 19.556-.959 1.744-2.158 3.619-3.597 5.624-.828 1.265-2.398 3.052-4.709 5.363-2.442 2.224-4.36 3.685-5.756 4.382-2.834 1.614-5.406 2.42-7.717 2.42h-.72c-1.962 0-4.294-.654-6.998-1.962-.915-.436-2.136-1.308-3.662-2.616-3.052-3.27-4.731-5.363-5.036-6.279-.48-.654-.981-1.831-1.505-3.531-.61-2.311-.915-4.731-.915-7.26 0-7.761 2.616-15.784 7.848-24.069 1.003-1.569 2.507-3.488 4.513-5.755.349-.392.61-.589.785-.589h.261c.131 0 .611.153 1.439.458 3.401-4.316 6.759-6.998 10.072-8.044 1.134-.262 2.071-.393 2.813-.393zm-7.587 31.394c0 1.657.283 3.008.85 4.055 2.18 2.093 3.27 3.51 3.27 4.251v.131c0 .261-.152.392-.457.392-1.265 0-4.077-1.853-8.438-5.559 0-.044-.523-.567-1.569-1.57-1.875 4.84-2.813 9.353-2.813 13.539v1.439c0 2.049.306 4.011.916 5.886.131.305.371.719.72 1.242.174 0 .436.022.784.066 4.579 0 9.44-2.594 14.585-7.783 2.922-3.139 4.993-5.865 6.214-8.176 1.09-1.656 2.289-4.076 3.597-7.259 2.049-5.189 3.074-9.963 3.074-14.324 0-2.877-.436-5.581-1.308-8.11-.262-.087-.654-.13-1.178-.13h-.13c-2.486 0-4.731.784-6.737 2.354-2.18 1.57-4.382 3.815-6.606 6.737-3.183 4.36-4.774 8.633-4.774 12.819zM239.533 46.044h.146c1.504.243 3.784 1.605 6.84 4.085 2.329 2.092 3.809 3.624 4.44 4.597.436.68.655 1.143.655 1.386v.073c0 .048-3.445 9.849-10.334 29.4-6.453 18.142-12.687 37.913-18.703 59.313-6.55 23.978-9.825 40.807-9.825 50.485 0 2.578.316 4.718.947 6.42v.073c0 .292-.146.438-.437.438h-.146c-1.407 0-4.148-1.775-8.223-5.326-2.426-2.334-3.687-3.988-3.784-4.961-.437-1.313-.655-3.112-.655-5.398 0-10.506 4.924-32.879 14.773-67.119 5.773-19.65 11.741-38.302 17.902-55.957 2.474-7.295 4.488-13.107 6.04-17.436.146-.049.267-.073.364-.073zM260.055 46.044h.134c1.381.223 3.475 1.471 6.281 3.745 2.138 1.917 3.497 3.322 4.076 4.213.401.624.601 1.048.601 1.27v.068c0 .044-3.162 9.028-9.488 26.95-5.925 16.63-11.649 34.754-17.173 54.37-6.013 21.98-9.02 37.406-9.02 46.278 0 2.363.289 4.325.868 5.886v.066c0 .268-.133.402-.4.402h-.134c-1.292 0-3.809-1.628-7.551-4.882-2.227-2.14-3.385-3.656-3.474-4.548-.401-1.204-.602-2.853-.602-4.949 0-9.63 4.522-30.138 13.565-61.525 5.301-18.012 10.78-35.11 16.437-51.294 2.272-6.688 4.121-12.015 5.546-15.983a1.1 1.1 0 0 1 .334-.067z"/>
    <path fill="#fff" d="M159.019 0h1.355c7.647 0 14.668 2.501 21.064 7.503 6.604 5.072 10.323 9.345 11.157 12.818.278 1.112.417 1.98.417 2.605v1.043c0 3.265-1.355 8.51-4.066 15.735-2.99 7.295-7.091 15.111-12.305 23.448-2.78 4.446-6.013 8.893-9.697 13.339-6.604 7.225-11.888 10.838-15.85 10.838-1.947 0-4.727-1.46-8.342-4.377-2.711-2.501-4.067-5.419-4.067-8.754 0-2.987.973-7.19 2.92-12.61-5.353-.764-11.401-2.084-18.144-3.96-8.064-2.222-13.868-3.75-17.414-4.585-5.213 5.767-9.35 10.734-12.408 14.903C87.313 76.769 81.925 85.8 77.476 95.04c-11.331 24.455-16.997 45.471-16.997 63.048 0 10.769 1.982 19.696 5.944 26.782 2.016 3.335 5.526 5.767 10.532 7.295 2.433.695 5.526 1.042 9.28 1.042 12.93 0 24.751-4.384 40.114-15.014 4.31-2.987 9.246-7.086 14.807-12.297 6.187-6.113 10.602-10.838 13.243-14.172 6.048-7.295 12.2-15.458 18.457-24.49 1.112-1.945 1.773-2.987 1.981-3.126h.209c1.599.208 3.997 1.98 7.195 5.314.834.973 1.251 1.668 1.251 2.085 0 .278-2.433 3.682-7.299 10.212-4.38 6.739-9.941 14.034-16.684 21.885-5.492 5.974-10.323 10.768-14.494 14.381-5.214 4.377-9.698 7.781-13.452 10.212-3.267 2.085-4.383 3.134-7.998 5.01-10.636 5.072-20.333 7.608-29.092 7.608h-.522c-.347 0-.66.034-.938.104-6.326 0-12.756-1.424-19.29-4.273-2.642-1.32-5.458-3.091-8.447-5.315-1.738-1.181-4.38-3.612-7.925-7.294-3.962-4.516-6.535-7.99-7.716-10.421-4.658-7.92-6.987-17.751-6.987-29.492 0-18.967 6.292-41.407 18.874-67.32 3.337-6.67 7.473-13.548 12.409-20.634 1.46-2.154 3.65-5.107 6.569-8.858-6.326-.973-11.853-1.46-16.58-1.46-13.486 0-24.887 3.51-34.202 10.526-3.267 3.127-5.248 5.35-5.943 6.67-3.893 5.627-5.84 11.011-5.84 16.152v.834c0 .417.035 1.285.105 2.605-.14.348-.348.521-.626.521h-.417c-2.155-.347-5.735-2.674-10.74-6.982-3.06-2.987-4.797-4.898-5.214-5.731-.626-.765-.939-2.12-.939-4.065v-.416c0-.209-.034-.348-.104-.417l.104-.417v-.104c0-5.767 2.399-11.915 7.195-18.446 2.78-3.265 5.214-5.592 7.3-6.982 7.646-4.933 16.683-7.399 27.11-7.399h2.19c10.845 0 25.061 2.71 42.649 8.129a151.143 151.143 0 0 1 12.096-11.985c6.604-5.766 12.826-10.455 18.665-14.068C133.159 4.759 147.062 0 159.019 0zm-48.384 48.458c8.412 2.432 15.642 4.169 21.689 5.21 2.364.279 4.45.418 6.257.418 2.225 0 4.519-.278 6.882-.834 1.808.347 4.31 2.258 7.508 5.731.626.765.938 1.355.938 1.772-2.016 4.516-3.615 8.58-4.796 12.193-.417 1.667-.8 3.3-1.147 4.898 1.877-.904 4.796-3.335 8.759-7.295 3.267-3.682 5.874-6.982 7.82-9.9 6.048-8.962 10.845-17.542 14.39-25.74 1.947-4.377 3.407-8.615 4.38-12.714.625-2.848.938-4.794.938-5.836-2.502-.764-5.248-1.146-8.237-1.146h-.209c-8.064 0-17.761 2.57-29.093 7.711-4.171 1.946-8.793 4.516-13.868 7.712-4.727 2.918-10.045 6.913-15.954 11.984-2.433 2.084-4.519 4.03-6.257 5.836z"/>
</svg>
