<svg xmlns="http://www.w3.org/2000/svg" width="192" height="168" fill="none" viewBox="0 0 192 168">
    <circle cx="83.95" cy="83.95" r="83.95" fill="#fff"/>
    <mask id="a" width="168" height="168" x="0" y="0" maskUnits="userSpaceOnUse">
        <circle cx="83.95" cy="83.95" r="83.95" fill="#E3E3E3"/>
    </mask>
    <g mask="url(#a)">
        <path fill="#569DDF" stroke="#377BB9" stroke-width="1.652" d="M55.7 40.356l28.956-6.205-15.702 34.495H38.44c-5.045 0-7.25-6.371-3.284-9.489a23.374 23.374 0 0 0 5.65-6.436l1.729-2.91A20.248 20.248 0 0 1 55.7 40.357z"/>
        <path fill="#FEC4FF" fill-rule="evenodd" d="M46.64 69.276v72.314c0 13.52 7.096 25.383 17.768 32.067v13.387a8.057 8.057 0 0 0 8.058 8.058 8.058 8.058 0 0 0 8.058-8.058v-7.846a38.36 38.36 0 0 0 8.264-.044v7.89a8.058 8.058 0 1 0 16.116 0v-13.649c10.441-6.729 17.356-18.46 17.356-31.805V69.276c0-20.882-16.928-37.81-37.81-37.81s-37.81 16.928-37.81 37.81z" clip-rule="evenodd"/>
        <path fill="#D692D7" d="M64.408 173.657h.827v-.457l-.388-.243-.439.7zm16.116 5.541l.085-.822-.911-.094v.916h.826zm8.264-.044h.827v-.927l-.92.105.093.822zm16.116-5.759l-.448-.695-.379.244v.451h.827zM47.466 141.59V69.276h-1.653v72.314h1.653zm17.38 31.367c-10.44-6.539-17.38-18.143-17.38-31.367h-1.653c0 13.817 7.254 25.939 18.156 32.768l.878-1.401zm.389 14.087v-13.387h-1.653v13.387h1.653zm7.231 7.232a7.232 7.232 0 0 1-7.231-7.232h-1.653a8.885 8.885 0 0 0 8.884 8.885v-1.653zm7.232-7.232a7.232 7.232 0 0 1-7.232 7.232v1.653a8.885 8.885 0 0 0 8.884-8.885h-1.652zm0-7.846v7.846h1.652v-7.846h-1.652zm4.752-.625c-1.297 0-2.579-.066-3.841-.197l-.17 1.644c1.319.136 2.657.206 4.01.206v-1.653zm4.244-.241c-1.392.16-2.809.241-4.244.241v1.653c1.498 0 2.977-.085 4.432-.251l-.188-1.643zm-.732.822v7.89h1.653v-7.89h-1.653zm0 7.89a8.885 8.885 0 0 0 8.884 8.885v-1.653a7.232 7.232 0 0 1-7.231-7.232h-1.653zm8.884 8.885a8.884 8.884 0 0 0 8.884-8.885h-1.653a7.231 7.231 0 0 1-7.231 7.232v1.653zm8.884-8.885v-13.649h-1.653v13.649h1.653zm15.703-45.454c0 13.053-6.761 24.527-16.977 31.11l.896 1.39c10.667-6.875 17.734-18.862 17.734-32.5h-1.653zm0-72.314v72.314h1.653V69.276h-1.653zM84.45 32.292c20.425 0 36.983 16.558 36.983 36.984h1.653c0-21.339-17.298-38.637-38.636-38.637v1.653zM47.466 69.276c0-20.426 16.558-36.984 36.984-36.984v-1.653c-21.339 0-38.637 17.298-38.637 38.637h1.653z"/>
        <path fill="#F7EFC3" d="M75.285 106.193l3.52-5.591-8.765-1.78-1.085 3.765a1.531 1.531 0 0 1-2.108.97l-5.97-2.727a2.042 2.042 0 0 0-2.22 3.37l4.092 3.711c3.804 3.449 9.8 2.628 12.536-1.718zM94.788 106.193l-3.52-5.591 8.765-1.78 1.085 3.765a1.531 1.531 0 0 0 2.108.97l5.97-2.727a2.043 2.043 0 0 1 2.22 3.37l-4.092 3.711c-3.803 3.449-9.8 2.628-12.535-1.718z"/>
        <path fill="#FEC4FF" d="M37.549 120.102v25.207a8.058 8.058 0 0 0 16.115 0v-25.207a8.058 8.058 0 0 0-16.115 0z"/>
        <path fill="#D692D7" d="M37.813 121.014c.065 7.442-.047 20.354.228 24.9.23 1.893 3.064 6.783 7.349 6.682 5.84-.137 7.102-3.787 7.618-6.396.224-1.131.283-17.809.344-21.475l.42-.609c.02.532.026.921.02 1.199l.309 17.84c.038 2.226.026 4.554-1.175 6.429-1.416 2.211-3.99 4.257-7.64 4.114-4.057-.16-6.553-3.319-7.768-5.825-.527-1.086-.675-2.302-.68-3.509l-.112-24.873c-.002-.567.035-1.136.192-1.68 1.056-3.661 4.617-7.065 10.44-5.973-.198.251-.198.243-.303.34-.276 0-.687-.001-.872.009-2.134.124-5.983.593-7.765 4.7-.559 1.289-.617 2.723-.605 4.127z"/>
        <path fill="#FEC4FF" d="M124.351 131.575l23.033-10.241a8.058 8.058 0 0 0-6.547-14.726l-23.033 10.241a8.058 8.058 0 0 0-4.089 10.636 8.057 8.057 0 0 0 10.636 4.09z"/>
        <path fill="#D692D7" d="M125.077 130.962c6.774-3.082 18.618-8.226 22.661-10.324 1.635-.979 4.953-5.555 3.12-9.429-2.498-5.281-6.346-4.951-8.94-4.363-1.125.255-16.388 6.976-19.763 8.41l-.726-.136c.477-.235.831-.398 1.087-.506l16.176-7.529c2.018-.94 4.151-1.875 6.352-1.539 2.595.396 5.51 1.917 6.863 5.311 1.502 3.771-.371 7.335-2.167 9.464-.778.922-1.829 1.552-2.93 2.047l-22.683 10.207c-.516.232-1.052.429-1.613.507a8.911 8.911 0 0 1-2.32.015v-1.047c.278.027.567.039.868.036 1.404-.012 2.737-.542 4.015-1.124zM97.88 77.747c1.033 4.958 2.066 9.297 3.512 12.396-.278 1.194-.413 1.86-.413 1.86s-2.272-4.339-3.099-14.256zM73.293 77.747c-1.033 4.958-2.066 9.297-3.512 12.396.278 1.194.413 1.86.413 1.86s2.273-4.339 3.099-14.256z"/>
        <path fill="#FEDCFF" stroke="#E4B4E5" stroke-width="1.652" d="M99.138 102.334H72.835c-5.021 0-7.959-5.658-5.07-9.765L78.68 77.056c3.49-4.96 10.861-4.903 14.272.112l10.97 16.127c2.613 3.84-.138 9.039-4.783 9.039z"/>
        <rect width="1.586" height="14.177" x="80.594" y="82.687" fill="#D78AD9" rx=".792" transform="rotate(-.492 80.594 82.687)"/>
        <rect width="1.586" height="14.177" x="88.482" y="82.764" fill="#D78AD9" rx=".792" transform="rotate(-.492 88.482 82.764)"/>
        <circle cx="58.623" cy="86.011" r="2.893" fill="#5C5858"/>
        <circle cx="112.549" cy="86.218" r="2.686" fill="#5C5858"/>
        <path fill="#569DDF" d="M55.318 48.82L46.02 62.045v-4.752l1.446-4.959 4.96-8.264 5.784-5.992 10.95-5.372 13.637-2.066L96.64 32.5l11.777 5.165 5.269 4.339 4.442 5.165 3.719 7.025 1.239 7.025-5.785-9.091-17.768-12.19-25.207-1.033-19.008 9.917z"/>
        <path stroke="#685B5B" stroke-width="3.303" d="M44.78 63.284c0-44.215 77.893-43.389 79.132 0"/>
        <path fill="#AF6B6B" d="M40.029 64.11c0-.913.74-1.653 1.652-1.653h4.96c.912 0 1.652.74 1.652 1.653v36.777c0 .913-.74 1.653-1.653 1.653h-4.959c-.912 0-1.652-.74-1.652-1.653V64.11z"/>
        <path fill="#4E4E4E" d="M34.656 68.656c0-.457.37-.827.827-.827h4.545v28.513h-4.545a.826.826 0 0 1-.827-.827v-26.86zM128.871 67.83h4.546c.456 0 .826.37.826.826v26.86c0 .456-.37.826-.826.826h-4.546V67.829z"/>
        <rect width="8.264" height="40.083" x="120.607" y="62.457" fill="#AF6B6B" rx="1.652"/>
        <path fill="#377BB9" d="M48.039 63.28s-2.179.443-2.81-.203c-.033-.033-.414-.62-.207-1.033 8.602-28.007 56.106-39.937 78.056-3.156 1.081 1.812-.102 4.076-2.192 4.364-.151-.796-.256-1.397-.496-2.448-4.967-7.823-14.19-21.103-36.354-20.248-18.569.717-26.2 4.253-35.847 21.633-.1.622-.15.513-.15 1.091z"/>
    </g>
    <rect width="7.851" height="58.678" x="165.575" y="56.946" fill="#A2815A" rx=".826" transform="rotate(25.082 165.575 56.946)"/>
    <rect width="54.546" height="35.951" x="142.732" y="50.674" fill="#fff" stroke="#D2D2D2" stroke-width=".413" rx="1.032" transform="rotate(25.082 142.732 50.674)"/>
    <path fill="#000" d="M145.738 72.452l2.986-4.141 1.312.613-4.406 5.723-1.324-.62.96-4.758-3.039 3.785-1.325-.62 1.573-7.049 1.311.614-1.259 4.94 3.176-4.043 1.114.522-1.079 5.034zm3.943 4.198c-.696-.326-1.163-.805-1.402-1.437-.236-.63-.187-1.301.145-2.012l.058-.123c.223-.476.514-.859.873-1.147a2.228 2.228 0 0 1 1.188-.502c.434-.046.868.032 1.301.234.649.304 1.064.748 1.243 1.33.183.585.098 1.253-.253 2.005l-.242.517-3.022-1.414c-.104.329-.098.635.019.918.12.284.338.5.654.648.488.229.952.23 1.393.005l.296.99a2.12 2.12 0 0 1-1.067.27 2.82 2.82 0 0 1-1.184-.282zm1.678-3.962a.884.884 0 0 0-.733-.033c-.234.097-.447.293-.639.588l1.763.825.048-.1c.125-.284.15-.536.075-.756-.073-.224-.245-.398-.514-.524zm2.376 5.753l-1.272-.596 3.153-6.736 1.272.595-3.153 6.737zm3.459.48c.234.11.454.134.661.074a.748.748 0 0 0 .468-.407l1.189.557c-.154.32-.38.574-.678.762a1.937 1.937 0 0 1-1.002.29 2.45 2.45 0 0 1-1.094-.244c-.678-.318-1.113-.783-1.304-1.396-.189-.616-.105-1.304.25-2.064l.039-.084c.342-.73.81-1.223 1.403-1.477.593-.253 1.228-.222 1.906.096.594.278.99.67 1.188 1.176.202.505.175 1.039-.082 1.603l-1.189-.556c.109-.249.126-.483.051-.704-.073-.223-.23-.39-.47-.503-.295-.138-.569-.135-.823.01-.249.144-.486.457-.712.94l-.062.131c-.228.489-.318.874-.269 1.157.05.284.226.496.53.639zm3.207-.306c.221-.471.508-.848.861-1.132a2.205 2.205 0 0 1 1.181-.49c.437-.041.88.043 1.33.254.641.3 1.071.74 1.291 1.32.223.583.201 1.22-.067 1.915l-.143.329c-.341.728-.818 1.218-1.431 1.469-.612.248-1.26.212-1.944-.108-.684-.32-1.128-.795-1.332-1.425-.202-.63-.126-1.32.228-2.075l.026-.057zm1.225.685c-.211.45-.288.835-.23 1.154.058.316.246.548.561.696.307.144.602.14.884-.014.283-.156.546-.493.788-1.01.207-.442.281-.824.222-1.148-.059-.323-.245-.558-.558-.705-.31-.145-.606-.135-.89.028-.281.16-.541.493-.777 1zm6.33.012l-.209.549c.529-.255 1.08-.248 1.653.02.612.286.918.724.921 1.313.559-.327 1.147-.346 1.764-.057.514.241.827.571.937.99.112.416.027.925-.255 1.527l-1.418 3.03-1.272-.594 1.416-3.027c.126-.269.165-.49.117-.661-.046-.175-.202-.325-.468-.45-.38-.178-.728-.12-1.044.175l-1.521 3.26-1.268-.593 1.415-3.022c.128-.275.167-.499.117-.672-.051-.174-.207-.321-.467-.443-.359-.168-.689-.141-.99.082l-1.57 3.355-1.268-.593 2.221-4.746 1.189.557zm6.514 8.94c-.696-.325-1.163-.804-1.402-1.436-.236-.631-.188-1.302.145-2.012l.057-.123c.223-.477.515-.859.874-1.147a2.224 2.224 0 0 1 1.187-.503c.435-.046.869.032 1.302.235.649.304 1.063.747 1.243 1.33.183.585.098 1.253-.254 2.004l-.242.518-3.022-1.414c-.104.329-.097.635.02.918.12.284.338.5.653.648.489.228.953.23 1.394.005l.296.989a2.12 2.12 0 0 1-1.068.27 2.818 2.818 0 0 1-1.183-.281zm1.678-3.962a.884.884 0 0 0-.733-.033c-.234.097-.447.293-.639.589l1.763.825.047-.101c.126-.283.151-.535.076-.756-.074-.223-.245-.398-.514-.524zm1.395 4.535a.711.711 0 0 1 .432-.397.81.81 0 0 1 .602.052c.207.097.349.24.424.429a.7.7 0 0 1-.023.587.704.704 0 0 1-.43.393.816.816 0 0 1-.604-.058.81.81 0 0 1-.427-.425.705.705 0 0 1 .026-.58z"/>
</svg>
