<svg xmlns="http://www.w3.org/2000/svg" width="381" height="110" fill="none" viewBox="0 0 381 110">
    <path fill="#F6A302" d="M273.025 68.043l.071-.071-.178.569a252.94 252.94 0 0 0-3.133 10.242c-.237.846.648 1.557 1.427 1.153l6.01-3.115a2.03 2.03 0 0 0 .999-1.187c.811-2.56 1.912-5.98 3.303-10.258v-.036c0-.166-.143-.438-.427-.818-1.612-2.015-3.189-3.022-4.73-3.022h-.284c-.948 0-1.861.308-2.738.924-.451.285-1.126.901-2.027 1.85a46.844 46.844 0 0 0-2.596 2.986 193.27 193.27 0 0 0-8.001 10.989c.782-2.371 2.24-6.615 4.374-12.731 0-.474-.712-1.387-2.134-2.738-1.636-1.399-2.821-2.146-3.556-2.24a.543.543 0 0 0-.213.07 2473.082 2473.082 0 0 0-4.196 12.056c-3.675 10.881-5.512 17.97-5.512 21.265V94c.047.451.711 1.293 1.991 2.526 1.802 1.564 3.046 2.347 3.734 2.347h.071l.142-.107c0-.948.214-2.17.64-3.663.617-1.968 1.221-3.532 1.814-4.694.924-2.015 2.442-4.694 4.552-8.036 2.797-4.339 6.329-9.116 10.597-14.331zM372.097 68.043l.072-.071-.178.569a252.94 252.94 0 0 0-3.133 10.242c-.237.846.648 1.557 1.427 1.153l6.009-3.115c.478-.247.837-.674.999-1.187.812-2.56 1.913-5.98 3.303-10.258v-.036c0-.166-.142-.438-.426-.818-1.612-2.015-3.189-3.022-4.73-3.022h-.284c-.949 0-1.861.308-2.739.924-.45.285-1.126.901-2.026 1.85a46.53 46.53 0 0 0-2.596 2.986 192.296 192.296 0 0 0-8.001 10.989c.782-2.371 2.24-6.615 4.373-12.731 0-.474-.711-1.387-2.133-2.738-1.636-1.399-2.821-2.146-3.556-2.24a.546.546 0 0 0-.214.07 2584.222 2584.222 0 0 0-4.196 12.056c-3.674 10.881-5.512 17.97-5.512 21.265V94c.048.451.712 1.293 1.992 2.526 1.802 1.564 3.046 2.347 3.734 2.347h.071l.142-.107c0-.948.213-2.17.64-3.663.616-1.968 1.221-3.532 1.814-4.694.924-2.015 2.441-4.694 4.551-8.036 2.798-4.339 6.33-9.116 10.597-14.331zM160.025 61.346c.735.07 1.956.865 3.663 2.382 1.328 1.257 1.991 2.098 1.991 2.525-.071.237-.699 2.015-1.884 5.334-1.28 3.674-2.264 6.638-2.952 8.89a100.426 100.426 0 0 0-2.24 8.677c-.119.474-.178.746-.178.818 1.66-1.66 2.869-3 3.627-4.019a87.138 87.138 0 0 0 3.805-5.05l.036-.035H166c.355 0 1.078.51 2.169 1.53.426.45.64.758.64.924v.071c-5.216 7.325-8.914 11.13-11.095 11.415-1.422 0-2.952-.996-4.587-2.987-.664-.83-.996-1.873-.996-3.13 0-1.47.284-3.437.853-5.903v-.035h-.035c-5.785 8.06-9.933 12.09-12.446 12.09h-.071c-1.304 0-2.881-.889-4.73-2.667-.948-.972-1.624-1.92-2.027-2.844-.521-1.21-.782-2.537-.782-3.983v-.25c0-2.891 1.019-6.519 3.058-10.88.901-1.873 2.098-3.841 3.592-5.904 3.247-4.196 6.223-6.294 8.925-6.294 2.039 0 4.469 1.34 7.29 4.019.735.758 1.292 1.386 1.671 1.884h.036a216.68 216.68 0 0 1 2.311-6.507.442.442 0 0 1 .249-.071zm-21.194 28.697c0 .711.072 1.351.214 1.92 2.252-.924 5.606-4.398 10.063-10.42 2.798-3.816 5.263-7.42 7.397-10.81 0-.047.024-.106.071-.177-.379-.688-1.185-1.672-2.418-2.952-.332-.26-.522-.391-.569-.391-.948 0-2.157.474-3.627 1.422-1.612 1.162-3.153 2.739-4.623 4.73a37.082 37.082 0 0 0-2.276 3.485c-.948 1.612-1.849 3.58-2.702 5.903-1.02 2.774-1.53 5.204-1.53 7.29z"/>
    <path fill="#F6A302" d="M183.495 32.328h.071c.593 0 1.778.747 3.556 2.24 1.423 1.352 2.134 2.24 2.134 2.668v.035c-.024.095-.628 1.6-1.814 4.516-4.125 10.076-7.716 19.44-10.774 28.093-.901 2.466-1.553 4.457-1.956 5.974 0 .048-.071.332-.214.854v.035h.036c1.328-2.133 3.023-4.528 5.085-7.183.948-1.233 2.229-2.679 3.841-4.338 1.351-1.233 2.37-2.015 3.058-2.347 1.067-.617 2.098-.925 3.094-.925 1.209 0 2.441.628 3.698 1.885.924.83 1.565 1.505 1.92 2.027 1.043 1.351 1.565 3.034 1.565 5.05v.533c0 2.82-1.043 6.52-3.13 11.095-.924 1.99-2.181 4.089-3.769 6.294-.664.924-1.576 2.015-2.738 3.271-2.632 2.56-5.038 3.84-7.219 3.84h-.071c-2.205 0-4.789-1.433-7.752-4.302l-.96-1.067c-1.28 3.627-1.92 6.934-1.92 9.922-.048.118-.119.177-.214.177h-.107c-.877-.142-2.216-1.043-4.018-2.702-1.067-1.067-1.6-1.79-1.6-2.17v-.568c0-6.567 2.821-17.626 8.463-33.178 3.058-8.393 6.615-17.567 10.668-27.524.569-1.375.878-2.098.925-2.17l.142-.035zm-11.379 56.008c.095.356.687 1.102 1.778 2.24.095.142.261.214.498.214h.106c2.916 0 6.164-2.407 9.744-7.22a42.81 42.81 0 0 0 3.556-6.08c2.015-4.362 3.023-8.096 3.023-11.201-.024-.664-.06-1.221-.107-1.672h-.036c-2.844 1.138-6.578 5.014-11.201 11.628a124.753 124.753 0 0 0-7.254 11.842l-.107.249zM247.293 61.78c.735.071 1.956.865 3.663 2.383 1.328 1.256 1.991 2.098 1.991 2.525-.071.236-.699 2.015-1.884 5.334-1.281 3.674-2.264 6.637-2.952 8.89a100.06 100.06 0 0 0-2.24 8.676c-.119.475-.178.747-.178.818 1.659-1.66 2.869-2.999 3.627-4.018a87.107 87.107 0 0 0 3.805-5.05l.036-.035h.106c.356 0 1.079.51 2.17 1.529.426.45.64.759.64.924v.072c-5.216 7.325-8.914 11.13-11.095 11.414-1.423 0-2.952-.995-4.587-2.987-.664-.83-.996-1.873-.996-3.129 0-1.47.284-3.437.853-5.903v-.035h-.035c-5.785 8.06-9.933 12.09-12.446 12.09h-.072c-1.303 0-2.88-.889-4.729-2.667-.948-.972-1.624-1.92-2.027-2.845-.522-1.209-.782-2.537-.782-3.983v-.249c0-2.892 1.019-6.519 3.058-10.881.901-1.873 2.098-3.84 3.591-5.903 3.248-4.196 6.224-6.294 8.926-6.294 2.039 0 4.469 1.34 7.29 4.018.735.759 1.292 1.387 1.671 1.885h.036a216.68 216.68 0 0 1 2.311-6.508.438.438 0 0 1 .249-.07zm-21.194 28.697c0 .712.071 1.352.214 1.92 2.252-.924 5.606-4.397 10.063-10.419 2.798-3.816 5.263-7.42 7.397-10.81a.34.34 0 0 1 .071-.178c-.379-.687-1.185-1.671-2.418-2.951-.332-.261-.522-.391-.569-.391-.948 0-2.158.474-3.627 1.422-1.612 1.162-3.153 2.738-4.623 4.73a37.084 37.084 0 0 0-2.276 3.484c-.948 1.612-1.849 3.58-2.703 5.903-1.019 2.774-1.529 5.204-1.529 7.29zM304.747 61.365c.735.072 1.956.866 3.663 2.383 1.328 1.256 1.991 2.098 1.991 2.525-.071.237-.699 2.015-1.884 5.334-1.28 3.674-2.264 6.638-2.952 8.89a100.062 100.062 0 0 0-2.24 8.677c-.119.474-.178.746-.178.817 1.66-1.659 2.869-2.998 3.627-4.018a87.138 87.138 0 0 0 3.805-5.05l.036-.035h.106c.356 0 1.079.51 2.17 1.53.426.45.64.758.64.924v.07c-5.216 7.326-8.914 11.131-11.095 11.416-1.423 0-2.952-.996-4.587-2.987-.664-.83-.996-1.873-.996-3.13 0-1.47.284-3.437.853-5.903v-.035h-.035c-5.785 8.06-9.933 12.09-12.446 12.09h-.071c-1.304 0-2.881-.889-4.73-2.667-.948-.972-1.624-1.92-2.027-2.845-.521-1.209-.782-2.536-.782-3.982v-.25c0-2.892 1.019-6.519 3.058-10.88.901-1.874 2.098-3.841 3.592-5.904 3.247-4.196 6.223-6.294 8.925-6.294 2.039 0 4.469 1.34 7.29 4.018.735.759 1.292 1.387 1.671 1.885h.036a216.68 216.68 0 0 1 2.311-6.508.442.442 0 0 1 .249-.07zm-21.194 28.698c0 .71.071 1.35.214 1.92 2.252-.925 5.606-4.398 10.063-10.42 2.798-3.816 5.263-7.42 7.397-10.81 0-.047.024-.106.071-.177-.379-.688-1.185-1.672-2.418-2.952-.332-.26-.522-.391-.569-.391-.948 0-2.157.474-3.627 1.422-1.612 1.162-3.153 2.738-4.623 4.73a37.082 37.082 0 0 0-2.276 3.485c-.948 1.612-1.849 3.58-2.703 5.903-1.019 2.773-1.529 5.203-1.529 7.29z"/>
    <path fill="#F6A302" d="M321.887 45.079a987.585 987.585 0 0 1 4.801-12.553c.071-.142.154-.213.249-.213h.107c.806.118 2.086.96 3.84 2.524 1.186 1.186 1.778 1.968 1.778 2.347v.071c0 .048-.687 1.838-2.062 5.37l-.747 1.92c2.039-.095 4.564-.166 7.574-.213.83 0 1.458-.012 1.885-.036.569.072 1.671.842 3.307 2.312 1.612 1.636 2.418 2.714 2.418 3.236 0 .142-.189.213-.569.213-6.424.119-10.81.26-13.157.427a96.523 96.523 0 0 0-3.841.32 560.087 560.087 0 0 0-7.361 21.123 168.81 168.81 0 0 0-3.378 11.912 83.465 83.465 0 0 0-1.067 5.619c-.071.759-.13 1.351-.177 1.778.569-.308 1.813-1.387 3.733-3.236 2.395-2.537 4.208-4.6 5.441-6.187.498-.617.759-.925.782-.925h.072c.379 0 1.114.521 2.204 1.565.403.426.605.723.605.889v.035c-6.117 7.634-10.277 11.45-12.482 11.45h-.213c-1.138 0-2.549-.805-4.232-2.417-.924-1.044-1.458-1.897-1.6-2.56-.166-.64-.249-1.388-.249-2.241 0-4.836 2.383-14.212 7.148-28.128a539.18 539.18 0 0 1 2.524-7.112c-.545.142-1.043.296-1.493.462-1.92.735-2.881 1.458-2.881 2.17v.07l.143.534c0 .094-.071.166-.214.213-.592 0-1.872-.948-3.84-2.845-1.375-1.446-2.063-2.501-2.063-3.165v-.142c0-1.73 3.556-3.153 10.668-4.267a53.883 53.883 0 0 1 2.347-.32z"/>
    <path fill="#F6A302" d="M340.165 63.25h.463c1.92 0 3.959 1.008 6.116 3.023 2.347 2.347 3.521 5.239 3.521 8.676v.64c0 3.13-1.032 6.674-3.094 10.633a30.795 30.795 0 0 1-1.956 3.058c-.45.688-1.304 1.66-2.56 2.916-1.328 1.21-2.371 2.003-3.13 2.383-1.541.877-2.939 1.316-4.196 1.316h-.391c-1.067 0-2.335-.356-3.805-1.067-.498-.237-1.162-.712-1.991-1.423-1.66-1.778-2.572-2.916-2.738-3.414-.261-.355-.534-.995-.818-1.92a15.39 15.39 0 0 1-.498-3.947c0-4.22 1.422-8.582 4.267-13.086.545-.854 1.363-1.897 2.454-3.13.189-.213.332-.32.426-.32h.143c.071 0 .332.083.782.25 1.849-2.348 3.675-3.806 5.476-4.375.617-.142 1.126-.213 1.529-.213zM336.04 80.32c0 .9.155 1.636.463 2.205 1.185 1.138 1.778 1.908 1.778 2.311v.071c0 .143-.083.214-.249.214-.688 0-2.217-1.008-4.587-3.023 0-.024-.285-.308-.854-.853-1.019 2.631-1.529 5.085-1.529 7.36v.783c0 1.114.166 2.181.498 3.2.071.166.201.391.391.676.095 0 .237.012.427.036 2.489 0 5.132-1.411 7.93-4.232 1.588-1.707 2.714-3.189 3.378-4.445.593-.901 1.245-2.217 1.956-3.947 1.114-2.822 1.671-5.417 1.671-7.788 0-1.565-.237-3.035-.711-4.41-.142-.047-.356-.07-.64-.07h-.071c-1.352 0-2.573.426-3.663 1.28-1.185.853-2.383 2.074-3.592 3.662-1.73 2.37-2.596 4.694-2.596 6.97zM210.932 62.207h.463c1.92 0 3.959 1.007 6.116 3.023 2.347 2.346 3.52 5.239 3.52 8.676v.64c0 3.13-1.031 6.674-3.093 10.633a30.795 30.795 0 0 1-1.956 3.058c-.451.688-1.304 1.66-2.56 2.916-1.328 1.21-2.371 2.003-3.13 2.383-1.541.877-2.939 1.315-4.196 1.315h-.391c-1.067 0-2.335-.355-3.805-1.067-.498-.237-1.162-.71-1.991-1.422-1.66-1.778-2.573-2.916-2.739-3.414-.26-.355-.533-.995-.817-1.92a15.39 15.39 0 0 1-.498-3.947c0-4.22 1.422-8.582 4.267-13.086.545-.854 1.363-1.897 2.454-3.13.189-.213.332-.32.426-.32h.143c.071 0 .332.083.782.25 1.849-2.348 3.675-3.806 5.476-4.375.617-.142 1.126-.213 1.529-.213zm-4.125 17.069c0 .9.154 1.636.463 2.205 1.185 1.138 1.778 1.908 1.778 2.311v.071c0 .142-.083.213-.249.213-.688 0-2.217-1.007-4.588-3.022 0-.024-.284-.308-.853-.854-1.019 2.632-1.529 5.086-1.529 7.361v.783c0 1.114.166 2.18.498 3.2.071.166.201.391.391.676.095 0 .237.012.427.035 2.489 0 5.132-1.41 7.93-4.231 1.588-1.707 2.714-3.189 3.378-4.445.592-.901 1.244-2.217 1.956-3.947 1.114-2.822 1.671-5.418 1.671-7.788 0-1.565-.237-3.035-.711-4.41-.142-.047-.356-.07-.64-.07h-.071c-1.352 0-2.573.426-3.663 1.28-1.185.853-2.383 2.074-3.592 3.662-1.73 2.37-2.596 4.694-2.596 6.97zM102.066 62.207h.462c1.921 0 3.959 1.007 6.117 3.023 2.347 2.346 3.52 5.239 3.52 8.676v.64c0 3.13-1.031 6.674-3.093 10.633a30.795 30.795 0 0 1-1.956 3.058c-.451.688-1.304 1.66-2.561 2.916-1.327 1.21-2.37 2.003-3.129 2.383-1.54.877-2.94 1.315-4.196 1.315h-.391c-1.067 0-2.335-.355-3.805-1.067-.498-.237-1.162-.71-1.992-1.422-1.66-1.778-2.572-2.916-2.738-3.414-.26-.355-.533-.995-.818-1.92a15.394 15.394 0 0 1-.498-3.947c0-4.22 1.423-8.582 4.268-13.086.545-.854 1.363-1.897 2.453-3.13.19-.213.332-.32.427-.32h.142c.072 0 .332.083.783.25 1.849-2.348 3.674-3.806 5.476-4.375.616-.142 1.126-.213 1.529-.213zm-4.125 17.069c0 .9.154 1.636.462 2.205 1.186 1.138 1.778 1.908 1.778 2.311v.071c0 .142-.083.213-.248.213-.688 0-2.217-1.007-4.588-3.022 0-.024-.284-.308-.853-.854-1.02 2.632-1.53 5.086-1.53 7.361v.783c0 1.114.167 2.18.498 3.2.072.166.202.391.392.676.094 0 .237.012.426.035 2.49 0 5.133-1.41 7.93-4.231 1.589-1.707 2.715-3.189 3.379-4.445.592-.901 1.244-2.217 1.955-3.947 1.115-2.822 1.672-5.418 1.672-7.788 0-1.565-.237-3.035-.711-4.41-.143-.047-.356-.07-.641-.07h-.071c-1.351 0-2.572.426-3.662 1.28-1.186.853-2.383 2.074-3.592 3.662-1.73 2.37-2.596 4.694-2.596 6.97zM130.236 25.035h.08c.817.132 2.057.872 3.719 2.22 1.266 1.138 2.071 1.97 2.414 2.5.237.37.356.621.356.753v.04c0 .027-1.873 5.355-5.619 15.986-3.508 9.863-6.898 20.613-10.169 32.248-3.561 13.038-5.342 22.187-5.342 27.45 0 1.401.172 2.565.515 3.49v.04c0 .159-.079.238-.238.238h-.079c-.765 0-2.255-.965-4.471-2.896-1.319-1.269-2.005-2.168-2.057-2.697-.238-.714-.356-1.692-.356-2.935 0-5.712 2.677-17.877 8.032-36.493 3.139-10.684 6.383-20.825 9.733-30.425a603.415 603.415 0 0 1 3.285-9.48.65.65 0 0 1 .197-.04zM141.394 25.035h.073c.751.12 1.889.8 3.415 2.036 1.163 1.042 1.901 1.806 2.216 2.29.218.34.327.57.327.691v.037c0 .024-1.719 4.908-5.159 14.653-3.221 9.042-6.333 18.896-9.337 29.562-3.269 11.95-4.904 20.337-4.904 25.161 0 1.285.157 2.352.472 3.2v.036c0 .146-.073.219-.218.219h-.072c-.703 0-2.071-.885-4.106-2.655-1.211-1.163-1.841-1.987-1.889-2.472-.218-.655-.327-1.552-.327-2.691 0-5.236 2.458-16.387 7.375-33.452 2.882-9.793 5.861-19.09 8.937-27.889a562.983 562.983 0 0 1 3.016-8.69.593.593 0 0 1 .181-.037z"/>
    <path fill="#F6A302" d="M86.46 0h.737c4.158 0 7.975 1.36 11.452 4.08 3.591 2.757 5.613 5.08 6.067 6.969.151.604.227 1.076.227 1.416v.567c0 1.775-.737 4.627-2.212 8.556-1.625 3.966-3.855 8.215-6.69 12.748-1.511 2.418-3.269 4.835-5.272 7.253-3.59 3.928-6.464 5.892-8.618 5.892-1.058 0-2.57-.793-4.535-2.38-1.475-1.36-2.212-2.946-2.212-4.759 0-1.624.53-3.91 1.588-6.856-2.91-.415-6.199-1.133-9.865-2.153-4.384-1.208-7.54-2.04-9.468-2.493-2.835 3.135-5.084 5.836-6.747 8.103-3.44 4.797-6.369 9.708-8.788 14.731-6.16 13.297-9.24 24.723-9.24 34.28 0 5.855 1.076 10.709 3.23 14.562 1.097 1.813 3.006 3.135 5.727 3.966 1.323.378 3.005.567 5.046.567 7.03 0 13.457-2.384 21.81-8.164 2.344-1.624 5.027-3.853 8.051-6.686 3.364-3.324 5.764-5.892 7.2-7.706 3.289-3.966 6.634-8.404 10.035-13.315.605-1.057.964-1.624 1.078-1.7h.113c.87.114 2.173 1.077 3.912 2.89.453.529.68.907.68 1.133 0 .151-1.323 2.002-3.968 5.553-2.382 3.664-5.405 7.63-9.072 11.899-2.986 3.248-5.612 5.855-7.88 7.819-2.835 2.38-5.273 4.231-7.314 5.553-1.776 1.133-2.383 1.704-4.348 2.724-5.783 2.757-11.056 4.136-15.818 4.136h-.284a2.15 2.15 0 0 0-.51.056c-3.44 0-6.936-.774-10.489-2.323-1.436-.717-2.967-1.681-4.592-2.889-.945-.643-2.381-1.965-4.309-3.967-2.154-2.455-3.553-4.344-4.195-5.666-2.532-4.306-3.799-9.65-3.799-16.035 0-10.312 3.42-22.513 10.262-36.602 1.814-3.627 4.063-7.366 6.747-11.219.793-1.171 1.984-2.776 3.572-4.816-3.44-.529-6.445-.793-9.015-.793-7.332 0-13.531 1.907-18.596 5.722-1.776 1.7-2.854 2.909-3.232 3.627-2.116 3.06-3.174 5.987-3.174 8.782v.453c0 .227.018.7.056 1.417-.075.189-.189.283-.34.283h-.227c-1.171-.189-3.118-1.454-5.84-3.796C1.74 39.795.795 38.756.568 38.303c-.34-.416-.51-1.153-.51-2.21v-.227c0-.113-.02-.189-.057-.227l.057-.226v-.057c0-3.135 1.304-6.478 3.912-10.029 1.512-1.775 2.834-3.04 3.968-3.796 4.158-2.682 9.072-4.023 14.741-4.023h1.19c5.897 0 13.626 1.473 23.189 4.42a82.183 82.183 0 0 1 6.576-6.516c3.591-3.136 6.974-5.685 10.149-7.65C72.4 2.587 79.959 0 86.46 0zM60.154 26.347c4.573 1.322 8.504 2.266 11.792 2.833 1.285.151 2.419.227 3.402.227 1.21 0 2.457-.151 3.742-.454.982.19 2.343 1.228 4.082 3.117.34.415.51.736.51.963-1.096 2.455-1.966 4.665-2.608 6.63a88.463 88.463 0 0 0-.624 2.662c1.02-.49 2.608-1.813 4.763-3.966 1.776-2.002 3.194-3.796 4.252-5.383 3.288-4.872 5.896-9.537 7.824-13.995 1.058-2.38 1.852-4.684 2.38-6.912.341-1.549.511-2.607.511-3.173-1.36-.416-2.854-.624-4.479-.624h-.113c-4.384 0-9.657 1.398-15.818 4.193-2.268 1.058-4.781 2.456-7.54 4.193-2.57 1.587-5.462 3.759-8.675 6.516-1.323 1.133-2.457 2.191-3.401 3.173z"/>
</svg>
