<svg xmlns="http://www.w3.org/2000/svg" width="24" height="26" fill="none" viewBox="0 0 24 26">
    <path fill="#000" fill-opacity="0" d="M0 0h24v26H0z"/>
    <path fill="#201E26" d="M6.72 2.687c0-.493.368-.907.854-.962L22.934.006c.53-.06 1 .327 1.06.848H24v18.859c0 2.404-1.934 4.353-4.32 4.353s-4.32-1.949-4.32-4.352c0-2.404 1.934-4.353 4.32-4.353.888 0 1.713.27 2.4.733V5.904L8.64 7.41v14.239C8.64 24.05 6.706 26 4.32 26S0 24.051 0 21.648c0-2.404 1.934-4.352 4.32-4.352.888 0 1.714.27 2.4.733V2.687z"/>
</svg>
