<svg xmlns="http://www.w3.org/2000/svg" width="26" height="28" fill="none" viewBox="0 0 26 28">
    <path fill="#000" fill-opacity="0" d="M0 0h26v28H0z"/>
    <path fill="#000" fill-opacity="0" d="M0 0h26v28H0z"/>
    <path fill="#3B69DE" d="M7.28 2.893c0-.53.399-.976.925-1.035L24.845.006a1.04 1.04 0 0 1 1.148.914H26v20.31a4.684 4.684 0 0 1-4.68 4.687 4.684 4.684 0 0 1-4.68-4.687 4.684 4.684 0 0 1 4.68-4.687c.962 0 1.856.29 2.6.79V6.358L9.36 7.979V23.313A4.684 4.684 0 0 1 4.68 28 4.684 4.684 0 0 1 0 23.313a4.684 4.684 0 0 1 4.68-4.687c.962 0 1.856.29 2.6.79V2.892z"/>
</svg>
