<svg xmlns="http://www.w3.org/2000/svg" width="28" height="28" fill="none" viewBox="0 0 28 28">
    <path fill="#C7C7C9" fill-rule="evenodd" d="M16.217 1.96h.793c.678 0 1.288.196 1.83.587.54.39.92.895 1.14 1.513H6.51c-.29 0-.538.103-.743.308a1.012 1.012 0 0 0-.307.742v17.67a3.107 3.107 0 0 1-1.513-1.14 3.05 3.05 0 0 1-.587-1.83V5.11c0-.87.307-1.612.923-2.227A3.035 3.035 0 0 1 6.51 1.96h.793A1.68 1.68 0 0 1 8.96.56h5.6a1.68 1.68 0 0 1 1.657 1.4zm4.993 25.2h-10.5c-.87 0-1.612-.308-2.227-.923a3.035 3.035 0 0 1-.923-2.227V9.31c0-.87.308-1.612.923-2.227a3.035 3.035 0 0 1 2.227-.923h10.5c.87 0 1.612.307 2.227.923.615.615.923 1.357.923 2.227v14.7c0 .87-.308 1.612-.923 2.227a3.035 3.035 0 0 1-2.227.923zm-10.5-2.1h10.5c.29 0 .537-.103.742-.308.205-.205.308-.452.308-.742V9.31c0-.29-.103-.538-.308-.743a1.011 1.011 0 0 0-.742-.307h-10.5c-.29 0-.537.102-.742.307a1.012 1.012 0 0 0-.308.743v14.7c0 .29.103.537.308.742.205.205.452.308.742.308z" clip-rule="evenodd"/>
</svg>
