<svg xmlns="http://www.w3.org/2000/svg" width="131" height="38" fill="none" viewBox="0 0 131 38">
    <path fill="url(#a)" d="M93.974 23.506L94 23.48l-.061.197a88.002 88.002 0 0 0-1.079 3.538.344.344 0 0 0 .491.398l2.069-1.076a.699.699 0 0 0 .344-.41c.279-.884.658-2.066 1.136-3.544v-.012c0-.057-.048-.151-.146-.282-.555-.697-1.098-1.045-1.628-1.045h-.098c-.326 0-.64.107-.943.32-.155.098-.387.31-.697.638-.302.32-.6.664-.894 1.032a66.69 66.69 0 0 0-2.754 3.796c.27-.819.771-2.285 1.506-4.397 0-.164-.245-.48-.735-.946-.563-.484-.97-.742-1.224-.774a.187.187 0 0 0-.073.024c-.49 1.4-.971 2.789-1.444 4.165-1.265 3.759-1.898 6.207-1.898 7.346v.024c.017.156.245.447.686.873.62.54 1.049.81 1.285.81h.025l.049-.036c0-.328.073-.75.22-1.266.212-.68.42-1.22.624-1.621.318-.697.84-1.622 1.567-2.777.963-1.498 2.178-3.149 3.647-4.95z"/>
    <path fill="url(#b)" d="M128.075 23.506l.024-.025-.061.197a87.798 87.798 0 0 0-1.078 3.538.344.344 0 0 0 .491.398l2.068-1.076a.697.697 0 0 0 .344-.41c.279-.884.658-2.066 1.137-3.544v-.012c0-.057-.049-.151-.147-.282-.555-.697-1.097-1.045-1.628-1.045h-.098c-.326 0-.64.107-.942.32-.155.098-.388.31-.698.638-.302.32-.6.664-.893 1.032a66.742 66.742 0 0 0-2.754 3.796c.269-.819.771-2.285 1.505-4.397 0-.164-.245-.48-.734-.946-.563-.484-.971-.742-1.224-.774a.192.192 0 0 0-.074.024c-.489 1.4-.971 2.789-1.444 4.165-1.265 3.759-1.897 6.207-1.897 7.346v.024c.016.156.245.447.685.873.621.54 1.049.81 1.286.81h.024l.049-.036c0-.328.073-.75.22-1.266.212-.68.421-1.22.625-1.621.318-.697.84-1.622 1.566-2.777.963-1.498 2.179-3.149 3.648-4.95z"/>
    <path fill="url(#c)" d="M55.08 21.192c.253.025.674.299 1.261.823.457.434.685.725.685.872-.024.082-.24.697-.648 1.843-.441 1.27-.78 2.293-1.016 3.071a34.684 34.684 0 0 0-.771 2.998c-.041.163-.062.258-.062.282.572-.573.988-1.036 1.249-1.388.432-.532.869-1.114 1.31-1.744l.012-.013h.036c.123 0 .372.176.747.529.147.155.22.262.22.319v.024c-1.795 2.531-3.068 3.846-3.818 3.944-.49 0-1.016-.344-1.58-1.032-.228-.287-.342-.647-.342-1.081 0-.508.098-1.188.294-2.04v-.012h-.012c-1.991 2.785-3.42 4.177-4.284 4.177h-.025c-.449 0-.991-.307-1.628-.921-.326-.336-.559-.664-.697-.983a3.448 3.448 0 0 1-.27-1.376v-.086c0-.999.351-2.252 1.053-3.759.31-.647.722-1.327 1.236-2.04 1.118-1.449 2.142-2.174 3.072-2.174.702 0 1.539.463 2.51 1.389.252.262.444.479.575.65h.012c.204-.613.47-1.363.796-2.247a.15.15 0 0 1 .085-.025zm-7.295 9.914c0 .245.025.466.074.663.775-.32 1.93-1.52 3.464-3.6a64.366 64.366 0 0 0 2.545-3.734.12.12 0 0 1 .025-.061c-.13-.238-.408-.578-.832-1.02-.114-.09-.18-.135-.196-.135-.327 0-.743.164-1.249.491-.554.402-1.085.946-1.59 1.634-.262.352-.523.754-.784 1.204-.326.557-.637 1.237-.93 2.04-.351.957-.527 1.797-.527 2.518z"/>
    <path fill="url(#d)" d="M63.158 11.168h.025c.204 0 .612.258 1.224.774.49.467.734.774.734.921v.013c-.008.032-.216.552-.624 1.56a214.274 214.274 0 0 0-3.708 9.704c-.31.852-.535 1.54-.674 2.064 0 .017-.024.115-.073.295v.012h.012a29.74 29.74 0 0 1 1.75-2.481c.327-.426.767-.926 1.322-1.499.465-.426.816-.696 1.053-.81.367-.214.722-.32 1.065-.32.416 0 .84.217 1.273.651.318.287.538.52.66.7.36.467.54 1.049.54 1.745v.184c0 .974-.36 2.252-1.078 3.833a13.48 13.48 0 0 1-1.297 2.174c-.229.32-.543.696-.943 1.13-.905.885-1.734 1.327-2.484 1.327h-.025c-.759 0-1.648-.496-2.668-1.487l-.33-.368c-.441 1.253-.662 2.395-.662 3.427-.016.041-.04.062-.073.062h-.037c-.302-.05-.763-.36-1.383-.934-.367-.368-.55-.618-.55-.75V32.9c0-2.268.97-6.089 2.912-11.461 1.053-2.9 2.277-6.069 3.672-9.508.196-.475.302-.725.319-.75l.048-.012zm-3.916 19.348c.032.123.236.38.612.774.032.05.09.074.171.074h.037c1.004 0 2.121-.832 3.354-2.494.473-.68.88-1.38 1.224-2.1.693-1.508 1.04-2.797 1.04-3.87a8.666 8.666 0 0 0-.037-.578h-.012c-.98.393-2.264 1.732-3.856 4.017a43.118 43.118 0 0 0-2.496 4.091l-.037.086z"/>
    <path fill="url(#e)" d="M85.118 21.342c.253.025.673.3 1.26.823.457.434.686.725.686.873-.025.081-.241.696-.649 1.842-.44 1.27-.78 2.293-1.016 3.071a34.645 34.645 0 0 0-.771 2.998c-.04.163-.061.258-.061.282.57-.573.987-1.036 1.248-1.388.433-.532.87-1.114 1.31-1.744l.012-.013h.037c.122 0 .371.177.746.529.147.155.22.262.22.32v.024c-1.794 2.53-3.067 3.845-3.818 3.943-.49 0-1.016-.344-1.579-1.032-.228-.287-.343-.647-.343-1.081 0-.508.098-1.188.294-2.04v-.011h-.012c-1.991 2.784-3.42 4.176-4.284 4.176h-.025c-.448 0-.991-.307-1.627-.921-.327-.336-.56-.663-.698-.983a3.448 3.448 0 0 1-.27-1.376v-.086c0-.999.351-2.252 1.053-3.759.31-.647.722-1.327 1.236-2.039 1.118-1.45 2.142-2.174 3.073-2.174.701 0 1.538.462 2.509 1.388.253.262.445.479.575.65h.012c.204-.613.47-1.363.796-2.247a.15.15 0 0 1 .086-.025zm-7.295 9.914c0 .245.024.467.073.663.775-.32 1.93-1.519 3.464-3.6a64.252 64.252 0 0 0 2.546-3.734.12.12 0 0 1 .024-.061c-.13-.238-.408-.577-.832-1.02-.114-.09-.18-.135-.196-.135-.326 0-.742.164-1.248.492-.555.4-1.086.945-1.591 1.633-.262.353-.523.754-.784 1.204-.326.557-.636 1.237-.93 2.04-.35.958-.526 1.797-.526 2.518z"/>
    <path fill="url(#f)" d="M104.893 21.199c.253.024.673.299 1.261.823.457.434.685.725.685.872-.024.082-.241.696-.649 1.843a86.977 86.977 0 0 0-1.015 3.071 34.7 34.7 0 0 0-.772 2.997 2.47 2.47 0 0 0-.061.283c.571-.573.988-1.036 1.249-1.388.432-.532.869-1.114 1.309-1.745l.013-.012h.036c.123 0 .372.176.747.528.147.156.22.262.22.32v.024c-1.795 2.53-3.068 3.845-3.819 3.944-.489 0-1.015-.344-1.578-1.032-.229-.287-.343-.647-.343-1.081 0-.508.098-1.188.294-2.04v-.012h-.013c-1.991 2.785-3.419 4.177-4.284 4.177h-.024c-.449 0-.992-.307-1.628-.921-.326-.336-.559-.664-.698-.983a3.448 3.448 0 0 1-.269-1.376v-.086c0-1 .351-2.252 1.053-3.76.31-.646.722-1.326 1.236-2.038 1.118-1.45 2.142-2.175 3.072-2.175.702 0 1.538.463 2.509 1.389.253.261.445.479.576.65h.012c.204-.614.469-1.363.795-2.247a.152.152 0 0 1 .086-.025zm-7.295 9.913c0 .246.025.467.074.664.775-.32 1.93-1.52 3.463-3.6a64.04 64.04 0 0 0 2.546-3.734c0-.016.008-.037.025-.061-.131-.238-.408-.578-.833-1.02-.114-.09-.179-.135-.195-.135-.327 0-.743.164-1.249.491-.555.402-1.085.946-1.591 1.634a12.8 12.8 0 0 0-.783 1.204c-.327.557-.637 1.237-.93 2.04-.351.957-.527 1.797-.527 2.518z"/>
    <path fill="url(#g)" d="M110.793 15.573c.522-1.4 1.073-2.846 1.652-4.337.024-.049.053-.074.086-.074h.036c.278.041.718.332 1.322.873.408.41.612.68.612.81v.025c0 .016-.236.635-.71 1.855l-.257.663a86.634 86.634 0 0 1 2.607-.073c.286 0 .502-.004.649-.013.196.025.575.291 1.138.799.555.565.833.938.833 1.118 0 .049-.066.073-.196.073-2.211.041-3.721.09-4.529.148-.498.033-.938.07-1.322.11a192.27 192.27 0 0 0-2.533 7.297 58.154 58.154 0 0 0-1.163 4.116 28.847 28.847 0 0 0-.367 1.94c-.025.263-.045.468-.062.615.196-.107.625-.48 1.286-1.118.824-.876 1.448-1.589 1.872-2.137.172-.213.261-.32.27-.32h.024c.131 0 .384.18.759.54.139.148.208.25.208.308v.012c-2.105 2.637-3.537 3.956-4.296 3.956h-.074c-.391 0-.877-.279-1.456-.836-.318-.36-.502-.655-.551-.884a3.119 3.119 0 0 1-.086-.774c0-1.67.82-4.91 2.461-9.717.277-.803.567-1.622.869-2.457-.188.05-.359.102-.514.16-.661.253-.992.503-.992.749v.025l.049.184c0 .033-.024.057-.073.073-.204 0-.645-.327-1.322-.982-.474-.5-.71-.864-.71-1.094v-.049c0-.598 1.224-1.089 3.672-1.474.196-.033.465-.07.808-.11z"/>
    <path fill="url(#h)" d="M117.084 21.85h.159c.661 0 1.363.348 2.105 1.044.808.811 1.212 1.81 1.212 2.998v.22c0 1.082-.355 2.306-1.065 3.674-.179.327-.404.68-.673 1.056-.155.238-.449.574-.881 1.008-.457.417-.816.692-1.077.823-.531.303-1.012.454-1.445.454h-.134c-.368 0-.804-.123-1.31-.368-.171-.082-.4-.246-.686-.492-.571-.614-.885-1.007-.942-1.18-.09-.122-.184-.343-.281-.662a5.303 5.303 0 0 1-.172-1.364c0-1.458.49-2.965 1.469-4.52.188-.296.469-.656.844-1.082.066-.073.115-.11.147-.11h.049c.025 0 .115.028.27.086.636-.811 1.264-1.315 1.885-1.511a2.42 2.42 0 0 1 .526-.074zm-1.42 5.897c0 .31.053.565.159.761.408.393.612.66.612.799v.024c0 .05-.028.074-.086.074-.236 0-.763-.348-1.578-1.044a3.85 3.85 0 0 0-.294-.295c-.351.909-.527 1.757-.527 2.543v.27c0 .385.058.753.172 1.106.024.057.069.135.134.233.033 0 .082.004.147.012.857 0 1.767-.487 2.73-1.461.546-.59.934-1.102 1.163-1.536.204-.311.428-.766.673-1.364.383-.974.575-1.87.575-2.69 0-.54-.082-1.048-.245-1.523a.737.737 0 0 0-.22-.025h-.025c-.465 0-.885.148-1.26.442-.408.295-.82.717-1.236 1.266-.596.819-.894 1.621-.894 2.408z"/>
    <path fill="url(#i)" d="M72.602 21.49h.16c.66 0 1.362.348 2.105 1.044.807.81 1.211 1.81 1.211 2.997v.221c0 1.081-.355 2.306-1.065 3.673-.18.328-.404.68-.673 1.057-.155.237-.449.573-.881 1.007-.457.418-.816.692-1.077.823-.53.303-1.012.455-1.444.455h-.135c-.367 0-.804-.123-1.31-.369-.171-.082-.4-.245-.685-.491-.571-.614-.885-1.007-.943-1.18-.09-.122-.183-.343-.281-.663a5.338 5.338 0 0 1-.171-1.363c0-1.458.49-2.965 1.468-4.521.188-.295.47-.655.845-1.081.065-.074.114-.11.147-.11h.049c.024 0 .114.028.269.085.636-.81 1.265-1.314 1.885-1.51a2.42 2.42 0 0 1 .526-.074zm-1.42 5.896c0 .311.053.565.16.762.407.393.612.66.612.798v.025c0 .049-.029.074-.086.074-.237 0-.763-.348-1.58-1.045 0-.008-.097-.106-.293-.294-.35.909-.526 1.756-.526 2.543v.27c0 .385.057.753.171 1.105.025.058.07.136.135.234.032 0 .081.004.147.012.856 0 1.766-.487 2.73-1.462.546-.59.933-1.101 1.162-1.535.204-.312.428-.766.673-1.364.384-.974.575-1.871.575-2.69 0-.54-.081-1.049-.244-1.523a.739.739 0 0 0-.22-.025h-.025a1.99 1.99 0 0 0-1.26.442c-.409.295-.82.717-1.237 1.265-.596.82-.894 1.622-.894 2.408z"/>
    <path fill="url(#j)" d="M35.13 21.49h.16c.66 0 1.363.348 2.105 1.044.808.81 1.212 1.81 1.212 2.997v.221c0 1.081-.355 2.306-1.065 3.673-.18.328-.404.68-.673 1.057-.155.237-.449.573-.881 1.007-.457.418-.816.692-1.078.823-.53.303-1.011.455-1.444.455h-.135c-.367 0-.803-.123-1.31-.369-.17-.082-.399-.245-.684-.491-.572-.614-.886-1.007-.943-1.18-.09-.122-.184-.343-.281-.663a5.333 5.333 0 0 1-.172-1.363c0-1.458.49-2.965 1.469-4.521.188-.295.47-.655.844-1.081.066-.074.115-.11.147-.11h.05c.024 0 .114.028.268.085.637-.81 1.265-1.314 1.886-1.51.212-.05.387-.074.526-.074zm-1.419 5.896c0 .311.053.565.16.762.407.393.611.66.611.798v.025c0 .049-.029.074-.086.074-.236 0-.763-.348-1.578-1.045 0-.008-.099-.106-.294-.294-.351.909-.527 1.756-.527 2.543v.27c0 .385.057.753.172 1.105.024.058.07.136.134.234.033 0 .082.004.147.012.857 0 1.767-.487 2.73-1.462.546-.59.934-1.101 1.163-1.535.203-.312.428-.766.673-1.364.383-.974.575-1.871.575-2.69 0-.54-.082-1.049-.245-1.523a.74.74 0 0 0-.22-.025H37.1a1.99 1.99 0 0 0-1.26.442c-.408.295-.82.717-1.236 1.265-.596.82-.894 1.622-.894 2.408z"/>
    <path fill="url(#k)" d="M44.827 8.648h.027c.282.046.708.302 1.28.768.436.392.713.68.831.863.082.128.123.215.123.26v.014c0 .01-.645 1.85-1.934 5.522-1.208 3.408-2.375 7.121-3.5 11.14-1.226 4.505-1.839 7.665-1.839 9.483 0 .484.06.886.177 1.206v.014c0 .055-.027.082-.081.082h-.028c-.263 0-.776-.333-1.539-1-.454-.439-.69-.75-.708-.932-.082-.247-.123-.585-.123-1.014 0-1.973.922-6.176 2.765-12.607 1.08-3.69 2.197-7.194 3.35-10.51.464-1.37.84-2.462 1.13-3.275a.223.223 0 0 1 .069-.014z"/>
    <path fill="url(#l)" d="M48.667 8.648h.026c.258.042.65.277 1.175.704.4.36.654.624.763.791.075.117.112.197.112.239v.012c0 .009-.592 1.696-1.775 5.062a159.045 159.045 0 0 0-3.214 10.213c-1.125 4.128-1.688 7.025-1.688 8.692 0 .444.054.812.162 1.105v.013c0 .05-.025.075-.075.075h-.025c-.242 0-.712-.306-1.413-.917-.417-.402-.633-.687-.65-.854-.075-.226-.113-.536-.113-.93 0-1.808.847-5.66 2.539-11.556a203.031 203.031 0 0 1 3.076-9.634c.425-1.256.771-2.257 1.038-3.002a.204.204 0 0 1 .063-.013z"/>
    <path fill="url(#m)" d="M29.76 0h.253c1.431 0 2.745.47 3.942 1.41 1.236.952 1.932 1.754 2.088 2.407.052.209.078.372.078.49v.195c0 .613-.254 1.598-.761 2.956-.56 1.37-1.327 2.838-2.303 4.404-.52.835-1.125 1.67-1.815 2.505-1.236 1.357-2.224 2.036-2.966 2.036-.364 0-.884-.274-1.561-.822-.507-.47-.761-1.018-.761-1.645 0-.56.182-1.35.546-2.368-1.001-.143-2.133-.391-3.395-.744a100.42 100.42 0 0 0-3.259-.861c-.976 1.083-1.75 2.016-2.322 2.799a34.218 34.218 0 0 0-3.025 5.09c-2.12 4.592-3.18 8.54-3.18 11.841 0 2.023.37 3.7 1.112 5.03.377.627 1.034 1.084 1.97 1.37.456.131 1.035.196 1.737.196 2.42 0 4.632-.823 7.507-2.82.807-.56 1.73-1.33 2.771-2.31 1.158-1.148 1.984-2.035 2.479-2.661a66.888 66.888 0 0 0 3.454-4.6c.208-.365.332-.561.37-.587h.04c.299.039.748.372 1.346.998.156.183.234.313.234.392 0 .052-.455.691-1.366 1.918-.82 1.265-1.86 2.636-3.122 4.11-1.028 1.122-1.932 2.023-2.713 2.701-.975.822-1.814 1.462-2.517 1.919-.611.391-.82.588-1.497.94-1.99.953-3.805 1.43-5.444 1.43h-.098a.726.726 0 0 0-.175.019c-1.184 0-2.387-.268-3.61-.803a10.702 10.702 0 0 1-1.581-.998c-.325-.222-.82-.678-1.483-1.37-.742-.848-1.223-1.5-1.444-1.957-.872-1.488-1.308-3.334-1.308-5.54 0-3.562 1.178-7.777 3.532-12.644a31.433 31.433 0 0 1 2.323-3.876c.273-.404.683-.959 1.229-1.664-1.184-.182-2.218-.274-3.103-.274-2.524 0-4.657.66-6.4 1.977-.612.588-.983 1.005-1.113 1.253-.728 1.057-1.093 2.068-1.093 3.034v.157c0 .078.007.24.02.489-.026.065-.065.098-.117.098H3.18c-.403-.065-1.073-.503-2.01-1.312-.573-.56-.898-.92-.976-1.076-.117-.144-.175-.398-.175-.764v-.078c0-.039-.007-.065-.02-.078l.02-.079v-.02c0-1.082.448-2.237 1.346-3.464.52-.613.976-1.05 1.366-1.311 1.431-.927 3.122-1.39 5.074-1.39h.41c2.029 0 4.69.51 7.98 1.527a28.342 28.342 0 0 1 2.264-2.251c1.236-1.083 2.4-1.964 3.493-2.642C24.92.894 27.522 0 29.76 0zm-9.055 9.102c1.574.456 2.927.783 4.059.978.442.053.832.079 1.17.079a5.6 5.6 0 0 0 1.288-.157c.339.065.807.424 1.405 1.077.117.143.176.254.176.332a24.091 24.091 0 0 0-.898 2.29c-.078.314-.15.62-.214.92.351-.17.897-.626 1.639-1.37.611-.691 1.1-1.311 1.464-1.86 1.131-1.682 2.029-3.294 2.692-4.834.365-.822.638-1.618.82-2.388.117-.535.176-.9.176-1.096a5.242 5.242 0 0 0-1.542-.215h-.039c-1.51 0-3.324.483-5.444 1.448-.781.366-1.646.848-2.596 1.449-.884.548-1.88 1.298-2.986 2.25-.455.392-.845.757-1.17 1.097z"/>
    <defs>
        <linearGradient id="a" x1="7.703" x2="141.487" y1="41.713" y2="10.828" gradientUnits="userSpaceOnUse">
            <stop stop-color="#E4A01A"/>
            <stop offset="1" stop-color="#F5B73E"/>
        </linearGradient>
        <linearGradient id="b" x1="7.703" x2="141.487" y1="41.713" y2="10.828" gradientUnits="userSpaceOnUse">
            <stop stop-color="#E4A01A"/>
            <stop offset="1" stop-color="#F5B73E"/>
        </linearGradient>
        <linearGradient id="c" x1="7.703" x2="141.487" y1="41.713" y2="10.828" gradientUnits="userSpaceOnUse">
            <stop stop-color="#E4A01A"/>
            <stop offset="1" stop-color="#F5B73E"/>
        </linearGradient>
        <linearGradient id="d" x1="7.703" x2="141.487" y1="41.713" y2="10.828" gradientUnits="userSpaceOnUse">
            <stop stop-color="#E4A01A"/>
            <stop offset="1" stop-color="#F5B73E"/>
        </linearGradient>
        <linearGradient id="e" x1="7.703" x2="141.487" y1="41.713" y2="10.828" gradientUnits="userSpaceOnUse">
            <stop stop-color="#E4A01A"/>
            <stop offset="1" stop-color="#F5B73E"/>
        </linearGradient>
        <linearGradient id="f" x1="7.703" x2="141.487" y1="41.713" y2="10.828" gradientUnits="userSpaceOnUse">
            <stop stop-color="#E4A01A"/>
            <stop offset="1" stop-color="#F5B73E"/>
        </linearGradient>
        <linearGradient id="g" x1="7.703" x2="141.487" y1="41.713" y2="10.828" gradientUnits="userSpaceOnUse">
            <stop stop-color="#E4A01A"/>
            <stop offset="1" stop-color="#F5B73E"/>
        </linearGradient>
        <linearGradient id="h" x1="7.703" x2="141.487" y1="41.713" y2="10.828" gradientUnits="userSpaceOnUse">
            <stop stop-color="#E4A01A"/>
            <stop offset="1" stop-color="#F5B73E"/>
        </linearGradient>
        <linearGradient id="i" x1="7.703" x2="141.487" y1="41.713" y2="10.828" gradientUnits="userSpaceOnUse">
            <stop stop-color="#E4A01A"/>
            <stop offset="1" stop-color="#F5B73E"/>
        </linearGradient>
        <linearGradient id="j" x1="7.703" x2="141.487" y1="41.713" y2="10.828" gradientUnits="userSpaceOnUse">
            <stop stop-color="#E4A01A"/>
            <stop offset="1" stop-color="#F5B73E"/>
        </linearGradient>
        <linearGradient id="k" x1="7.703" x2="141.487" y1="41.713" y2="10.828" gradientUnits="userSpaceOnUse">
            <stop stop-color="#E4A01A"/>
            <stop offset="1" stop-color="#F5B73E"/>
        </linearGradient>
        <linearGradient id="l" x1="7.703" x2="141.487" y1="41.713" y2="10.828" gradientUnits="userSpaceOnUse">
            <stop stop-color="#E4A01A"/>
            <stop offset="1" stop-color="#F5B73E"/>
        </linearGradient>
        <linearGradient id="m" x1="7.703" x2="141.487" y1="41.713" y2="10.828" gradientUnits="userSpaceOnUse">
            <stop stop-color="#E4A01A"/>
            <stop offset="1" stop-color="#F5B73E"/>
        </linearGradient>
    </defs>
</svg>
