<svg xmlns="http://www.w3.org/2000/svg" width="57" height="57" fill="none" viewBox="0 0 57 57">
    <circle cx="24.5" cy="24.5" r="22.5" fill="#fff" filter="url(#a)"/>
    <path fill="url(#b)" fill-rule="evenodd" d="M13.539 26.728h21.923c1.377 0 2.11-1.623 1.201-2.657L25.627 11.524a1.5 1.5 0 0 0-2.253 0L12.337 24.072c-.909 1.034-.175 2.657 1.202 2.657zm2.095 2.06h17.733c2.007 0 3.633 1.615 3.633 3.606C37 34.386 35.373 36 33.367 36H15.634C13.627 36 12 34.386 12 32.394c0-1.991 1.627-3.606 3.634-3.606z" clip-rule="evenodd"/>
    <defs>
        <filter id="a" width="57" height="57" x="0" y="0" color-interpolation-filters="sRGB" filterUnits="userSpaceOnUse">
            <feFlood flood-opacity="0" result="BackgroundImageFix"/>
            <feColorMatrix in="SourceAlpha" values="0 0 0 0 0 0 0 0 0 0 0 0 0 0 0 0 0 0 127 0"/>
            <feOffset dx="4" dy="4"/>
            <feGaussianBlur stdDeviation="3"/>
            <feColorMatrix values="0 0 0 0 0 0 0 0 0 0 0 0 0 0 0 0 0 0 0.9 0"/>
            <feBlend in2="BackgroundImageFix" result="effect1_dropShadow"/>
            <feBlend in="SourceGraphic" in2="effect1_dropShadow" result="shape"/>
        </filter>
        <linearGradient id="b" x1="13.551" x2="37.595" y1="34.215" y2="29.884" gradientUnits="userSpaceOnUse">
            <stop stop-color="#3B69DE"/>
            <stop offset="1" stop-color="#98B1F2"/>
        </linearGradient>
    </defs>
</svg>
