<svg xmlns="http://www.w3.org/2000/svg" width="26" height="25" fill="none" viewBox="0 0 26 25">
    <path fill="url(#a)" fill-rule="evenodd" d="M1.603 15.728h21.923c1.377 0 2.11-1.623 1.202-2.657L13.69.524a1.5 1.5 0 0 0-2.253 0L.402 13.071c-.91 1.034-.176 2.657 1.201 2.657zm2.095 2.06h17.733c2.007 0 3.634 1.615 3.634 3.606 0 1.992-1.627 3.606-3.634 3.606H3.698C1.692 25 .065 23.386.065 21.394c0-1.991 1.627-3.606 3.633-3.606z" clip-rule="evenodd"/>
    <defs>
        <linearGradient id="a" x1="1.615" x2="25.659" y1="23.215" y2="18.884" gradientUnits="userSpaceOnUse">
            <stop stop-color="#3B69DE"/>
            <stop offset="1" stop-color="#98B1F2"/>
        </linearGradient>
    </defs>
</svg>
