<svg xmlns="http://www.w3.org/2000/svg" width="24" height="24" fill="none" viewBox="0 0 24 24">
    <path fill="#fff" fill-rule="evenodd" d="M16.81 3.231a9.934 9.934 0 0 0-2.011-.834L14 0h-4l-.799 2.397a9.935 9.935 0 0 0-2.011.834L4.929 2.1 2.101 4.928l1.13 2.26a9.936 9.936 0 0 0-.834 2.012L0 10v4l2.397.799c.205.706.486 1.38.834 2.011L2.1 19.071l2.828 2.828 2.26-1.13a9.93 9.93 0 0 0 2.012.834L10 24h4l.799-2.397a9.935 9.935 0 0 0 2.011-.834l2.261 1.13 2.828-2.828-1.13-2.26a9.928 9.928 0 0 0 .834-2.012L24 14v-4l-2.397-.799a9.934 9.934 0 0 0-.834-2.011l1.13-2.261-2.828-2.828-2.26 1.13zM12 16a4 4 0 1 0 0-8 4 4 0 0 0 0 8z" clip-rule="evenodd"/>
</svg>
