<svg xmlns="http://www.w3.org/2000/svg" width="22" height="31" fill="none" viewBox="0 0 22 31">
    <path fill="#3B69DE" fill-rule="evenodd" d="M19.015.076c.618-.254 1.312.155 1.406.83l1.294 9.302a1.05 1.05 0 0 1-.124.66l-1.694 3.002.98 2.217c.099.221.118.47.056.702l-1.892 7.05c-.176.655-.914.96-1.496.616l-2.717-1.604-1.626 2.882c-.28.496-.906.664-1.397.374l-9.817-5.798a1.057 1.057 0 0 1-.381-1.424l1.626-2.883-2.717-1.604a1.055 1.055 0 0 1-.226-1.633l5.023-5.2c.165-.173.386-.28.622-.304l2.367-.24 1.694-3c.112-.2.287-.355.497-.441L19.015.076zm-4.518 9.666c1.036.612 2.363.247 2.962-.815.6-1.062.246-2.42-.791-3.032-1.036-.612-2.363-.247-2.962.815-.6 1.063-.246 2.42.79 3.032zm-1.38 6.88c-.6 1.062-1.927 1.427-2.963.815-1.037-.613-1.39-1.97-.791-3.032.6-1.063 1.926-1.428 2.962-.816 1.037.613 1.391 1.97.791 3.033zm-8.641 6.437l-1.87-1.104-1.679 2.974a2.115 2.115 0 0 0 .763 2.85l.092.053 2.694-4.773zm2.815 1.663l-1.877-1.109-3.236 5.733a1.116 1.116 0 0 0 .403 1.504c.518.306 1.178.13 1.474-.395l3.236-5.733zm.938.554l1.874 1.106-1.624 2.878a2.125 2.125 0 0 1-2.944.789l1.347-2.387 1.347-2.386z" clip-rule="evenodd"/>
</svg>
