<svg xmlns="http://www.w3.org/2000/svg" width="20" height="26" fill="none" viewBox="0 0 20 26">
    <path fill="#000" fill-opacity="0" d="M0 0h19.9v25.865H0z"/>
    <path fill="#201E26" fill-rule="evenodd" d="M17.358.073a.995.995 0 0 1 1.355.788l1.177 8.33a1 1 0 0 1-.122.637l-1.544 2.695.892 1.986c.095.212.114.45.053.675l-1.71 6.28a.988.988 0 0 1-1.452.597l-2.434-1.417-1.464 2.556a.987.987 0 0 1-1.355.363l-8.92-5.192a1.003 1.003 0 0 1-.366-1.363l1.464-2.557-2.434-1.416a1.002 1.002 0 0 1-.214-1.565l4.541-4.634a.985.985 0 0 1 .606-.29l2.153-.216 1.543-2.694a.989.989 0 0 1 .487-.426L17.358.073zm-4.09 8.717a1.982 1.982 0 0 0 2.719-.737c.55-.96.225-2.188-.726-2.741a1.982 1.982 0 0 0-2.719.737c-.55.96-.225 2.188.726 2.741zm-1.266 6.221a1.982 1.982 0 0 1-2.719.737 2.015 2.015 0 0 1-.726-2.741 1.982 1.982 0 0 1 2.719-.738 2.015 2.015 0 0 1 .726 2.742zm-7.93 5.821l-1.716-.998-.67 1.17a2.002 2.002 0 0 0 .729 2.722l1.657-2.894zm2.584 1.504l-1.723-1.003-1.494 2.608c-.273.478-.11 1.09.366 1.366a.988.988 0 0 0 1.357-.363l1.494-2.608zm.86.5l1.72 1.002-.669 1.167a1.973 1.973 0 0 1-2.708.726l.829-1.447.828-1.447z" clip-rule="evenodd"/>
</svg>
