<svg xmlns="http://www.w3.org/2000/svg" width="18" height="18" fill="none" viewBox="0 0 18 18">
    <path fill="#201E26" d="M18 8.94c-.02-2.28-.88-4.56-2.64-6.3A8.942 8.942 0 0 0 9 0C6.6 0 4.34.94 2.64 2.64A8.998 8.998 0 0 0 0 8.94v.12c.02 2.28.88 4.56 2.64 6.3C4.34 17.06 6.6 18 9 18c2.4 0 4.66-.94 6.36-2.64A8.998 8.998 0 0 0 18 9.06V9v-.06zm-3.02 5.36c-.54-.48-1.12-.88-1.74-1.22.28-1.08.46-2.3.5-3.58h3.24c-.1 1.72-.78 3.42-2 4.8zM1.02 9.5h3.24c.04 1.3.22 2.5.5 3.58-.62.32-1.2.74-1.74 1.22a7.956 7.956 0 0 1-2-4.8zm2-5.8c.54.48 1.12.88 1.74 1.22C4.46 6 4.3 7.2 4.26 8.5H1.02c.1-1.72.78-3.42 2-4.8zM8.5 4.96a8.08 8.08 0 0 1-2.54-.58c.6-1.76 1.5-3 2.54-3.3v3.88zm0 1V8.5H5.26c.04-1.12.18-2.2.42-3.16.9.36 1.86.56 2.82.62zm0 3.54v2.54c-.96.06-1.92.26-2.82.62-.24-.96-.38-2.04-.42-3.16H8.5zm0 3.54v3.88c-1.04-.3-1.94-1.56-2.54-3.3a8.08 8.08 0 0 1 2.54-.58zm1 0c.86.06 1.72.24 2.54.58-.6 1.76-1.5 3-2.54 3.3v-3.88zm0-1V9.5h3.24c-.04 1.12-.18 2.2-.42 3.16-.9-.36-1.86-.56-2.82-.62zm0-3.54V5.96c.96-.06 1.92-.26 2.82-.62.24.96.38 2.04.42 3.16H9.5zm0-3.54V1.08c1.04.3 1.94 1.56 2.54 3.3-.82.34-1.68.52-2.54.58zm2.1-3.52c.98.34 1.88.86 2.68 1.56-.42.36-.86.68-1.32.94-.36-1-.82-1.86-1.36-2.5zm-6.54 2.5A7.55 7.55 0 0 1 3.74 3c.8-.7 1.7-1.22 2.68-1.56-.56.64-1.02 1.5-1.36 2.5zm0 10.12c.36 1 .82 1.84 1.34 2.5-.98-.34-1.88-.86-2.68-1.56a7.7 7.7 0 0 1 1.34-.94zm7.88 0c.46.26.92.58 1.32.94-.8.7-1.7 1.22-2.68 1.56.56-.64 1.02-1.5 1.36-2.5zm.8-5.56c-.04-1.3-.2-2.5-.5-3.58.62-.32 1.2-.74 1.74-1.22a8.077 8.077 0 0 1 2 4.8h-3.24z"/>
</svg>
