<svg xmlns="http://www.w3.org/2000/svg" width="24" height="24" fill="none" viewBox="0 0 24 24">
    <path fill="#fff" d="M21 11.94c-.02-2.28-.88-4.56-2.64-6.3A8.942 8.942 0 0 0 12 3c-2.4 0-4.66.94-6.36 2.64A8.998 8.998 0 0 0 3 11.94v.12c.02 2.28.88 4.56 2.64 6.3C7.34 20.06 9.6 21 12 21c2.4 0 4.66-.94 6.36-2.64a8.998 8.998 0 0 0 2.64-6.3V12v-.06zm-3.02 5.36c-.54-.48-1.12-.88-1.74-1.22.28-1.08.46-2.3.5-3.58h3.24c-.1 1.72-.78 3.42-2 4.8zM4.02 12.5h3.24c.04 1.3.22 2.5.5 3.58-.62.32-1.2.74-1.74 1.22a7.956 7.956 0 0 1-2-4.8zm2-5.8c.54.48 1.12.88 1.74 1.22-.3 1.08-.46 2.28-.5 3.58H4.02c.1-1.72.78-3.42 2-4.8zm5.48 1.26a8.08 8.08 0 0 1-2.54-.58c.6-1.76 1.5-3 2.54-3.3v3.88zm0 1v2.54H8.26c.04-1.12.18-2.2.42-3.16.9.36 1.86.56 2.82.62zm0 3.54v2.54c-.96.06-1.92.26-2.82.62-.24-.96-.38-2.04-.42-3.16h3.24zm0 3.54v3.88c-1.04-.3-1.94-1.56-2.54-3.3a8.08 8.08 0 0 1 2.54-.58zm1 0c.86.06 1.72.24 2.54.58-.6 1.76-1.5 3-2.54 3.3v-3.88zm0-1V12.5h3.24c-.04 1.12-.18 2.2-.42 3.16-.9-.36-1.86-.56-2.82-.62zm0-3.54V8.96c.96-.06 1.92-.26 2.82-.62.24.96.38 2.04.42 3.16H12.5zm0-3.54V4.08c1.04.3 1.94 1.56 2.54 3.3-.82.34-1.68.52-2.54.58zm2.1-3.52c.98.34 1.88.86 2.68 1.56-.42.36-.86.68-1.32.94-.36-1-.82-1.86-1.36-2.5zm-6.54 2.5A7.55 7.55 0 0 1 6.74 6c.8-.7 1.7-1.22 2.68-1.56-.56.64-1.02 1.5-1.36 2.5zm0 10.12c.36 1 .82 1.84 1.34 2.5-.98-.34-1.88-.86-2.68-1.56a7.7 7.7 0 0 1 1.34-.94zm7.88 0c.46.26.92.58 1.32.94-.8.7-1.7 1.22-2.68 1.56.56-.64 1.02-1.5 1.36-2.5zm.8-5.56c-.04-1.3-.2-2.5-.5-3.58.62-.32 1.2-.74 1.74-1.22a8.077 8.077 0 0 1 2 4.8h-3.24z"/>
</svg>
